<mxfile host="Electron" agent="Mozilla/5.0 (Windows NT 10.0; Win64; x64) AppleWebKit/537.36 (KHTML, like Gecko) draw.io/28.0.4 Chrome/138.0.7204.97 Electron/37.2.1 Safari/537.36" version="28.0.4" pages="2">
  <diagram name="Страница — 1" id="rD7UjrzjHX4joTyuG7i6">
    <mxGraphModel dx="2593" dy="1929" grid="1" gridSize="10" guides="1" tooltips="1" connect="1" arrows="1" fold="1" page="0" pageScale="1" pageWidth="900" pageHeight="1600" math="0" shadow="0">
      <root>
        <mxCell id="0" />
        <mxCell id="1" parent="0" />
        <mxCell id="rEFSV0ryo6aef3nmrS3--33" value="" style="group" vertex="1" connectable="0" parent="1">
          <mxGeometry x="1580" y="190" width="430" height="70" as="geometry" />
        </mxCell>
        <mxCell id="rEFSV0ryo6aef3nmrS3--34" value="" style="rounded=1;whiteSpace=wrap;html=1;" vertex="1" parent="rEFSV0ryo6aef3nmrS3--33">
          <mxGeometry width="430" height="70" as="geometry" />
        </mxCell>
        <mxCell id="rEFSV0ryo6aef3nmrS3--35" value="venv" style="text;html=1;align=center;verticalAlign=middle;resizable=0;points=[];autosize=1;strokeColor=none;fillColor=none;" vertex="1" parent="rEFSV0ryo6aef3nmrS3--33">
          <mxGeometry width="50" height="30" as="geometry" />
        </mxCell>
        <mxCell id="rEFSV0ryo6aef3nmrS3--38" value="" style="group" vertex="1" connectable="0" parent="1">
          <mxGeometry x="1580" y="260" width="430" height="70" as="geometry" />
        </mxCell>
        <mxCell id="rEFSV0ryo6aef3nmrS3--39" value="" style="rounded=1;whiteSpace=wrap;html=1;" vertex="1" parent="rEFSV0ryo6aef3nmrS3--38">
          <mxGeometry width="430" height="70" as="geometry" />
        </mxCell>
        <mxCell id="rEFSV0ryo6aef3nmrS3--40" value="venv" style="text;html=1;align=center;verticalAlign=middle;resizable=0;points=[];autosize=1;strokeColor=none;fillColor=none;" vertex="1" parent="rEFSV0ryo6aef3nmrS3--38">
          <mxGeometry width="50" height="30" as="geometry" />
        </mxCell>
        <mxCell id="rEFSV0ryo6aef3nmrS3--41" value="" style="group" vertex="1" connectable="0" parent="1">
          <mxGeometry x="1580" y="330" width="430" height="70" as="geometry" />
        </mxCell>
        <mxCell id="rEFSV0ryo6aef3nmrS3--42" value="" style="rounded=1;whiteSpace=wrap;html=1;" vertex="1" parent="rEFSV0ryo6aef3nmrS3--41">
          <mxGeometry width="430" height="70" as="geometry" />
        </mxCell>
        <mxCell id="rEFSV0ryo6aef3nmrS3--43" value="venv" style="text;html=1;align=center;verticalAlign=middle;resizable=0;points=[];autosize=1;strokeColor=none;fillColor=none;" vertex="1" parent="rEFSV0ryo6aef3nmrS3--41">
          <mxGeometry width="50" height="30" as="geometry" />
        </mxCell>
        <mxCell id="rEFSV0ryo6aef3nmrS3--32" value="" style="group" vertex="1" connectable="0" parent="1">
          <mxGeometry x="1580" y="-50" width="430" height="190" as="geometry" />
        </mxCell>
        <mxCell id="rEFSV0ryo6aef3nmrS3--30" value="" style="rounded=1;whiteSpace=wrap;html=1;arcSize=6;" vertex="1" parent="rEFSV0ryo6aef3nmrS3--32">
          <mxGeometry width="430" height="190" as="geometry" />
        </mxCell>
        <mxCell id="rEFSV0ryo6aef3nmrS3--31" value="venv" style="text;html=1;align=center;verticalAlign=middle;resizable=0;points=[];autosize=1;strokeColor=none;fillColor=none;" vertex="1" parent="rEFSV0ryo6aef3nmrS3--32">
          <mxGeometry width="50" height="30" as="geometry" />
        </mxCell>
        <mxCell id="rEFSV0ryo6aef3nmrS3--8" style="edgeStyle=orthogonalEdgeStyle;rounded=0;orthogonalLoop=1;jettySize=auto;html=1;" edge="1" parent="1" source="rEFSV0ryo6aef3nmrS3--1" target="rEFSV0ryo6aef3nmrS3--7">
          <mxGeometry relative="1" as="geometry" />
        </mxCell>
        <mxCell id="rEFSV0ryo6aef3nmrS3--1" value="3.11" style="shape=image;verticalLabelPosition=bottom;verticalAlign=top;imageAspect=0;aspect=fixed;image=data:image/svg+xml,PHN2ZyB4bWxucz0iaHR0cDovL3d3dy53My5vcmcvMjAwMC9zdmciIHZpZXdCb3g9IjAgMCAxMjggMTI4Ij48bGluZWFyR3JhZGllbnQgaWQ9InB5dGhvbi1vcmlnaW5hbC1hIiBncmFkaWVudFVuaXRzPSJ1c2VyU3BhY2VPblVzZSIgeDE9IjcwLjI1MiIgeTE9IjEyMzcuNDc2IiB4Mj0iMTcwLjY1OSIgeTI9IjExNTEuMDg5IiBncmFkaWVudFRyYW5zZm9ybT0ibWF0cml4KC41NjMgMCAwIC0uNTY4IC0yOS4yMTUgNzA3LjgxNykiPjxzdG9wIG9mZnNldD0iMCIgc3RvcC1jb2xvcj0iIzVBOUZENCIvPjxzdG9wIG9mZnNldD0iMSIgc3RvcC1jb2xvcj0iIzMwNjk5OCIvPjwvbGluZWFyR3JhZGllbnQ+PGxpbmVhckdyYWRpZW50IGlkPSJweXRob24tb3JpZ2luYWwtYiIgZ3JhZGllbnRVbml0cz0idXNlclNwYWNlT25Vc2UiIHgxPSIyMDkuNDc0IiB5MT0iMTA5OC44MTEiIHgyPSIxNzMuNjIiIHkyPSIxMTQ5LjUzNyIgZ3JhZGllbnRUcmFuc2Zvcm09Im1hdHJpeCguNTYzIDAgMCAtLjU2OCAtMjkuMjE1IDcwNy44MTcpIj48c3RvcCBvZmZzZXQ9IjAiIHN0b3AtY29sb3I9IiNGRkQ0M0IiLz48c3RvcCBvZmZzZXQ9IjEiIHN0b3AtY29sb3I9IiNGRkU4NzMiLz48L2xpbmVhckdyYWRpZW50PjxwYXRoIGZpbGw9InVybCgjcHl0aG9uLW9yaWdpbmFsLWEpIiBkPSJNNjMuMzkxIDEuOTg4Yy00LjIyMi4wMi04LjI1Mi4zNzktMTEuOCAxLjAwNy0xMC40NSAxLjg0Ni0xMi4zNDYgNS43MS0xMi4zNDYgMTIuODM3djkuNDExaDI0LjY5M3YzLjEzN0gyOS45NzdjLTcuMTc2IDAtMTMuNDYgNC4zMTMtMTUuNDI2IDEyLjUyMS0yLjI2OCA5LjQwNS0yLjM2OCAxNS4yNzUgMCAyNS4wOTYgMS43NTUgNy4zMTEgNS45NDcgMTIuNTE5IDEzLjEyNCAxMi41MTloOC40OTFWNjcuMjM0YzAtOC4xNTEgNy4wNTEtMTUuMzQgMTUuNDI2LTE1LjM0aDI0LjY2NWM2Ljg2NiAwIDEyLjM0Ni01LjY1NCAxMi4zNDYtMTIuNTQ4VjE1LjgzM2MwLTYuNjkzLTUuNjQ2LTExLjcyLTEyLjM0Ni0xMi44MzctNC4yNDQtLjcwNi04LjY0NS0xLjAyNy0xMi44NjYtMS4wMDh6TTUwLjAzNyA5LjU1N2MyLjU1IDAgNC42MzQgMi4xMTcgNC42MzQgNC43MjEgMCAyLjU5My0yLjA4MyA0LjY5LTQuNjM0IDQuNjktMi41NiAwLTQuNjMzLTIuMDk3LTQuNjMzLTQuNjktLjAwMS0yLjYwNCAyLjA3My00LjcyMSA0LjYzMy00LjcyMXoiIHRyYW5zZm9ybT0idHJhbnNsYXRlKDAgMTAuMjYpIi8+PHBhdGggZmlsbD0idXJsKCNweXRob24tb3JpZ2luYWwtYikiIGQ9Ik05MS42ODIgMjguMzh2MTAuOTY2YzAgOC41LTcuMjA4IDE1LjY1NS0xNS40MjYgMTUuNjU1SDUxLjU5MWMtNi43NTYgMC0xMi4zNDYgNS43ODMtMTIuMzQ2IDEyLjU0OXYyMy41MTVjMCA2LjY5MSA1LjgxOCAxMC42MjggMTIuMzQ2IDEyLjU0NyA3LjgxNiAyLjI5NyAxNS4zMTIgMi43MTMgMjQuNjY1IDAgNi4yMTYtMS44MDEgMTIuMzQ2LTUuNDIzIDEyLjM0Ni0xMi41NDd2LTkuNDEySDYzLjkzOHYtMy4xMzhoMzcuMDEyYzcuMTc2IDAgOS44NTItNS4wMDUgMTIuMzQ4LTEyLjUxOSAyLjU3OC03LjczNSAyLjQ2Ny0xNS4xNzQgMC0yNS4wOTYtMS43NzQtNy4xNDUtNS4xNjEtMTIuNTIxLTEyLjM0OC0xMi41MjFoLTkuMjY4ek03Ny44MDkgODcuOTI3YzIuNTYxIDAgNC42MzQgMi4wOTcgNC42MzQgNC42OTIgMCAyLjYwMi0yLjA3NCA0LjcxOS00LjYzNCA0LjcxOS0yLjU1IDAtNC42MzMtMi4xMTctNC42MzMtNC43MTkgMC0yLjU5NSAyLjA4My00LjY5MiA0LjYzMy00LjY5MnoiIHRyYW5zZm9ybT0idHJhbnNsYXRlKDAgMTAuMjYpIi8+PHJhZGlhbEdyYWRpZW50IGlkPSJweXRob24tb3JpZ2luYWwtYyIgY3g9IjE4MjUuNjc4IiBjeT0iNDQ0LjQ1IiByPSIyNi43NDMiIGdyYWRpZW50VHJhbnNmb3JtPSJtYXRyaXgoMCAtLjI0IC0xLjA1NSAwIDUzMi45NzkgNTU3LjU3NikiIGdyYWRpZW50VW5pdHM9InVzZXJTcGFjZU9uVXNlIj48c3RvcCBvZmZzZXQ9IjAiIHN0b3AtY29sb3I9IiNCOEI4QjgiIHN0b3Atb3BhY2l0eT0iLjQ5OCIvPjxzdG9wIG9mZnNldD0iMSIgc3RvcC1jb2xvcj0iIzdGN0Y3RiIgc3RvcC1vcGFjaXR5PSIwIi8+PC9yYWRpYWxHcmFkaWVudD48cGF0aCBvcGFjaXR5PSIuNDQ0IiBmaWxsPSJ1cmwoI3B5dGhvbi1vcmlnaW5hbC1jKSIgZD0iTTk3LjMwOSAxMTkuNTk3YzAgMy41NDMtMTQuODE2IDYuNDE2LTMzLjA5MSA2LjQxNi0xOC4yNzYgMC0zMy4wOTItMi44NzMtMzMuMDkyLTYuNDE2IDAtMy41NDQgMTQuODE1LTYuNDE3IDMzLjA5Mi02LjQxNyAxOC4yNzUgMCAzMy4wOTEgMi44NzIgMzMuMDkxIDYuNDE3eiIvPjwvc3ZnPg==" vertex="1" parent="1">
          <mxGeometry x="380" y="40" width="70" height="70" as="geometry" />
        </mxCell>
        <mxCell id="rEFSV0ryo6aef3nmrS3--10" style="edgeStyle=orthogonalEdgeStyle;rounded=0;orthogonalLoop=1;jettySize=auto;html=1;" edge="1" parent="1" source="rEFSV0ryo6aef3nmrS3--2" target="rEFSV0ryo6aef3nmrS3--9">
          <mxGeometry relative="1" as="geometry" />
        </mxCell>
        <mxCell id="rEFSV0ryo6aef3nmrS3--2" value="3.13" style="shape=image;verticalLabelPosition=bottom;verticalAlign=top;imageAspect=0;aspect=fixed;image=data:image/svg+xml,PHN2ZyB4bWxucz0iaHR0cDovL3d3dy53My5vcmcvMjAwMC9zdmciIHZpZXdCb3g9IjAgMCAxMjggMTI4Ij48bGluZWFyR3JhZGllbnQgaWQ9InB5dGhvbi1vcmlnaW5hbC1hIiBncmFkaWVudFVuaXRzPSJ1c2VyU3BhY2VPblVzZSIgeDE9IjcwLjI1MiIgeTE9IjEyMzcuNDc2IiB4Mj0iMTcwLjY1OSIgeTI9IjExNTEuMDg5IiBncmFkaWVudFRyYW5zZm9ybT0ibWF0cml4KC41NjMgMCAwIC0uNTY4IC0yOS4yMTUgNzA3LjgxNykiPjxzdG9wIG9mZnNldD0iMCIgc3RvcC1jb2xvcj0iIzVBOUZENCIvPjxzdG9wIG9mZnNldD0iMSIgc3RvcC1jb2xvcj0iIzMwNjk5OCIvPjwvbGluZWFyR3JhZGllbnQ+PGxpbmVhckdyYWRpZW50IGlkPSJweXRob24tb3JpZ2luYWwtYiIgZ3JhZGllbnRVbml0cz0idXNlclNwYWNlT25Vc2UiIHgxPSIyMDkuNDc0IiB5MT0iMTA5OC44MTEiIHgyPSIxNzMuNjIiIHkyPSIxMTQ5LjUzNyIgZ3JhZGllbnRUcmFuc2Zvcm09Im1hdHJpeCguNTYzIDAgMCAtLjU2OCAtMjkuMjE1IDcwNy44MTcpIj48c3RvcCBvZmZzZXQ9IjAiIHN0b3AtY29sb3I9IiNGRkQ0M0IiLz48c3RvcCBvZmZzZXQ9IjEiIHN0b3AtY29sb3I9IiNGRkU4NzMiLz48L2xpbmVhckdyYWRpZW50PjxwYXRoIGZpbGw9InVybCgjcHl0aG9uLW9yaWdpbmFsLWEpIiBkPSJNNjMuMzkxIDEuOTg4Yy00LjIyMi4wMi04LjI1Mi4zNzktMTEuOCAxLjAwNy0xMC40NSAxLjg0Ni0xMi4zNDYgNS43MS0xMi4zNDYgMTIuODM3djkuNDExaDI0LjY5M3YzLjEzN0gyOS45NzdjLTcuMTc2IDAtMTMuNDYgNC4zMTMtMTUuNDI2IDEyLjUyMS0yLjI2OCA5LjQwNS0yLjM2OCAxNS4yNzUgMCAyNS4wOTYgMS43NTUgNy4zMTEgNS45NDcgMTIuNTE5IDEzLjEyNCAxMi41MTloOC40OTFWNjcuMjM0YzAtOC4xNTEgNy4wNTEtMTUuMzQgMTUuNDI2LTE1LjM0aDI0LjY2NWM2Ljg2NiAwIDEyLjM0Ni01LjY1NCAxMi4zNDYtMTIuNTQ4VjE1LjgzM2MwLTYuNjkzLTUuNjQ2LTExLjcyLTEyLjM0Ni0xMi44MzctNC4yNDQtLjcwNi04LjY0NS0xLjAyNy0xMi44NjYtMS4wMDh6TTUwLjAzNyA5LjU1N2MyLjU1IDAgNC42MzQgMi4xMTcgNC42MzQgNC43MjEgMCAyLjU5My0yLjA4MyA0LjY5LTQuNjM0IDQuNjktMi41NiAwLTQuNjMzLTIuMDk3LTQuNjMzLTQuNjktLjAwMS0yLjYwNCAyLjA3My00LjcyMSA0LjYzMy00LjcyMXoiIHRyYW5zZm9ybT0idHJhbnNsYXRlKDAgMTAuMjYpIi8+PHBhdGggZmlsbD0idXJsKCNweXRob24tb3JpZ2luYWwtYikiIGQ9Ik05MS42ODIgMjguMzh2MTAuOTY2YzAgOC41LTcuMjA4IDE1LjY1NS0xNS40MjYgMTUuNjU1SDUxLjU5MWMtNi43NTYgMC0xMi4zNDYgNS43ODMtMTIuMzQ2IDEyLjU0OXYyMy41MTVjMCA2LjY5MSA1LjgxOCAxMC42MjggMTIuMzQ2IDEyLjU0NyA3LjgxNiAyLjI5NyAxNS4zMTIgMi43MTMgMjQuNjY1IDAgNi4yMTYtMS44MDEgMTIuMzQ2LTUuNDIzIDEyLjM0Ni0xMi41NDd2LTkuNDEySDYzLjkzOHYtMy4xMzhoMzcuMDEyYzcuMTc2IDAgOS44NTItNS4wMDUgMTIuMzQ4LTEyLjUxOSAyLjU3OC03LjczNSAyLjQ2Ny0xNS4xNzQgMC0yNS4wOTYtMS43NzQtNy4xNDUtNS4xNjEtMTIuNTIxLTEyLjM0OC0xMi41MjFoLTkuMjY4ek03Ny44MDkgODcuOTI3YzIuNTYxIDAgNC42MzQgMi4wOTcgNC42MzQgNC42OTIgMCAyLjYwMi0yLjA3NCA0LjcxOS00LjYzNCA0LjcxOS0yLjU1IDAtNC42MzMtMi4xMTctNC42MzMtNC43MTkgMC0yLjU5NSAyLjA4My00LjY5MiA0LjYzMy00LjY5MnoiIHRyYW5zZm9ybT0idHJhbnNsYXRlKDAgMTAuMjYpIi8+PHJhZGlhbEdyYWRpZW50IGlkPSJweXRob24tb3JpZ2luYWwtYyIgY3g9IjE4MjUuNjc4IiBjeT0iNDQ0LjQ1IiByPSIyNi43NDMiIGdyYWRpZW50VHJhbnNmb3JtPSJtYXRyaXgoMCAtLjI0IC0xLjA1NSAwIDUzMi45NzkgNTU3LjU3NikiIGdyYWRpZW50VW5pdHM9InVzZXJTcGFjZU9uVXNlIj48c3RvcCBvZmZzZXQ9IjAiIHN0b3AtY29sb3I9IiNCOEI4QjgiIHN0b3Atb3BhY2l0eT0iLjQ5OCIvPjxzdG9wIG9mZnNldD0iMSIgc3RvcC1jb2xvcj0iIzdGN0Y3RiIgc3RvcC1vcGFjaXR5PSIwIi8+PC9yYWRpYWxHcmFkaWVudD48cGF0aCBvcGFjaXR5PSIuNDQ0IiBmaWxsPSJ1cmwoI3B5dGhvbi1vcmlnaW5hbC1jKSIgZD0iTTk3LjMwOSAxMTkuNTk3YzAgMy41NDMtMTQuODE2IDYuNDE2LTMzLjA5MSA2LjQxNi0xOC4yNzYgMC0zMy4wOTItMi44NzMtMzMuMDkyLTYuNDE2IDAtMy41NDQgMTQuODE1LTYuNDE3IDMzLjA5Mi02LjQxNyAxOC4yNzUgMCAzMy4wOTEgMi44NzIgMzMuMDkxIDYuNDE3eiIvPjwvc3ZnPg==" vertex="1" parent="1">
          <mxGeometry x="380" y="190" width="70" height="70" as="geometry" />
        </mxCell>
        <mxCell id="rEFSV0ryo6aef3nmrS3--6" style="edgeStyle=orthogonalEdgeStyle;rounded=0;orthogonalLoop=1;jettySize=auto;html=1;" edge="1" parent="1" source="rEFSV0ryo6aef3nmrS3--3" target="rEFSV0ryo6aef3nmrS3--1">
          <mxGeometry relative="1" as="geometry" />
        </mxCell>
        <mxCell id="rEFSV0ryo6aef3nmrS3--3" value="project1" style="rounded=1;whiteSpace=wrap;html=1;" vertex="1" parent="1">
          <mxGeometry x="570" y="45" width="120" height="60" as="geometry" />
        </mxCell>
        <mxCell id="rEFSV0ryo6aef3nmrS3--5" style="edgeStyle=orthogonalEdgeStyle;rounded=0;orthogonalLoop=1;jettySize=auto;html=1;" edge="1" parent="1" source="rEFSV0ryo6aef3nmrS3--4" target="rEFSV0ryo6aef3nmrS3--2">
          <mxGeometry relative="1" as="geometry" />
        </mxCell>
        <mxCell id="rEFSV0ryo6aef3nmrS3--4" value="project2" style="rounded=1;whiteSpace=wrap;html=1;" vertex="1" parent="1">
          <mxGeometry x="570" y="195" width="120" height="60" as="geometry" />
        </mxCell>
        <mxCell id="rEFSV0ryo6aef3nmrS3--7" value="libs" style="shape=cube;whiteSpace=wrap;html=1;boundedLbl=1;backgroundOutline=1;darkOpacity=0.05;darkOpacity2=0.1;" vertex="1" parent="1">
          <mxGeometry x="160" y="35" width="120" height="80" as="geometry" />
        </mxCell>
        <mxCell id="rEFSV0ryo6aef3nmrS3--9" value="libs" style="shape=cube;whiteSpace=wrap;html=1;boundedLbl=1;backgroundOutline=1;darkOpacity=0.05;darkOpacity2=0.1;" vertex="1" parent="1">
          <mxGeometry x="160" y="185" width="120" height="80" as="geometry" />
        </mxCell>
        <mxCell id="rEFSV0ryo6aef3nmrS3--12" style="edgeStyle=orthogonalEdgeStyle;rounded=1;orthogonalLoop=1;jettySize=auto;html=1;curved=0;" edge="1" parent="1" source="rEFSV0ryo6aef3nmrS3--11" target="rEFSV0ryo6aef3nmrS3--2">
          <mxGeometry relative="1" as="geometry">
            <Array as="points">
              <mxPoint x="520" y="295" />
              <mxPoint x="520" y="225" />
            </Array>
          </mxGeometry>
        </mxCell>
        <mxCell id="rEFSV0ryo6aef3nmrS3--11" value="project3" style="rounded=1;whiteSpace=wrap;html=1;" vertex="1" parent="1">
          <mxGeometry x="570" y="265" width="120" height="60" as="geometry" />
        </mxCell>
        <mxCell id="rEFSV0ryo6aef3nmrS3--14" style="edgeStyle=orthogonalEdgeStyle;rounded=1;orthogonalLoop=1;jettySize=auto;html=1;curved=0;" edge="1" parent="1" source="rEFSV0ryo6aef3nmrS3--13" target="rEFSV0ryo6aef3nmrS3--2">
          <mxGeometry relative="1" as="geometry">
            <Array as="points">
              <mxPoint x="520" y="370" />
              <mxPoint x="520" y="225" />
            </Array>
          </mxGeometry>
        </mxCell>
        <mxCell id="rEFSV0ryo6aef3nmrS3--13" value="project4" style="rounded=1;whiteSpace=wrap;html=1;" vertex="1" parent="1">
          <mxGeometry x="570" y="340" width="120" height="60" as="geometry" />
        </mxCell>
        <mxCell id="rEFSV0ryo6aef3nmrS3--15" style="edgeStyle=orthogonalEdgeStyle;rounded=0;orthogonalLoop=1;jettySize=auto;html=1;" edge="1" source="rEFSV0ryo6aef3nmrS3--16" target="rEFSV0ryo6aef3nmrS3--23" parent="1">
          <mxGeometry relative="1" as="geometry" />
        </mxCell>
        <mxCell id="rEFSV0ryo6aef3nmrS3--16" value="3.11" style="shape=image;verticalLabelPosition=bottom;verticalAlign=top;imageAspect=0;aspect=fixed;image=data:image/svg+xml,PHN2ZyB4bWxucz0iaHR0cDovL3d3dy53My5vcmcvMjAwMC9zdmciIHZpZXdCb3g9IjAgMCAxMjggMTI4Ij48bGluZWFyR3JhZGllbnQgaWQ9InB5dGhvbi1vcmlnaW5hbC1hIiBncmFkaWVudFVuaXRzPSJ1c2VyU3BhY2VPblVzZSIgeDE9IjcwLjI1MiIgeTE9IjEyMzcuNDc2IiB4Mj0iMTcwLjY1OSIgeTI9IjExNTEuMDg5IiBncmFkaWVudFRyYW5zZm9ybT0ibWF0cml4KC41NjMgMCAwIC0uNTY4IC0yOS4yMTUgNzA3LjgxNykiPjxzdG9wIG9mZnNldD0iMCIgc3RvcC1jb2xvcj0iIzVBOUZENCIvPjxzdG9wIG9mZnNldD0iMSIgc3RvcC1jb2xvcj0iIzMwNjk5OCIvPjwvbGluZWFyR3JhZGllbnQ+PGxpbmVhckdyYWRpZW50IGlkPSJweXRob24tb3JpZ2luYWwtYiIgZ3JhZGllbnRVbml0cz0idXNlclNwYWNlT25Vc2UiIHgxPSIyMDkuNDc0IiB5MT0iMTA5OC44MTEiIHgyPSIxNzMuNjIiIHkyPSIxMTQ5LjUzNyIgZ3JhZGllbnRUcmFuc2Zvcm09Im1hdHJpeCguNTYzIDAgMCAtLjU2OCAtMjkuMjE1IDcwNy44MTcpIj48c3RvcCBvZmZzZXQ9IjAiIHN0b3AtY29sb3I9IiNGRkQ0M0IiLz48c3RvcCBvZmZzZXQ9IjEiIHN0b3AtY29sb3I9IiNGRkU4NzMiLz48L2xpbmVhckdyYWRpZW50PjxwYXRoIGZpbGw9InVybCgjcHl0aG9uLW9yaWdpbmFsLWEpIiBkPSJNNjMuMzkxIDEuOTg4Yy00LjIyMi4wMi04LjI1Mi4zNzktMTEuOCAxLjAwNy0xMC40NSAxLjg0Ni0xMi4zNDYgNS43MS0xMi4zNDYgMTIuODM3djkuNDExaDI0LjY5M3YzLjEzN0gyOS45NzdjLTcuMTc2IDAtMTMuNDYgNC4zMTMtMTUuNDI2IDEyLjUyMS0yLjI2OCA5LjQwNS0yLjM2OCAxNS4yNzUgMCAyNS4wOTYgMS43NTUgNy4zMTEgNS45NDcgMTIuNTE5IDEzLjEyNCAxMi41MTloOC40OTFWNjcuMjM0YzAtOC4xNTEgNy4wNTEtMTUuMzQgMTUuNDI2LTE1LjM0aDI0LjY2NWM2Ljg2NiAwIDEyLjM0Ni01LjY1NCAxMi4zNDYtMTIuNTQ4VjE1LjgzM2MwLTYuNjkzLTUuNjQ2LTExLjcyLTEyLjM0Ni0xMi44MzctNC4yNDQtLjcwNi04LjY0NS0xLjAyNy0xMi44NjYtMS4wMDh6TTUwLjAzNyA5LjU1N2MyLjU1IDAgNC42MzQgMi4xMTcgNC42MzQgNC43MjEgMCAyLjU5My0yLjA4MyA0LjY5LTQuNjM0IDQuNjktMi41NiAwLTQuNjMzLTIuMDk3LTQuNjMzLTQuNjktLjAwMS0yLjYwNCAyLjA3My00LjcyMSA0LjYzMy00LjcyMXoiIHRyYW5zZm9ybT0idHJhbnNsYXRlKDAgMTAuMjYpIi8+PHBhdGggZmlsbD0idXJsKCNweXRob24tb3JpZ2luYWwtYikiIGQ9Ik05MS42ODIgMjguMzh2MTAuOTY2YzAgOC41LTcuMjA4IDE1LjY1NS0xNS40MjYgMTUuNjU1SDUxLjU5MWMtNi43NTYgMC0xMi4zNDYgNS43ODMtMTIuMzQ2IDEyLjU0OXYyMy41MTVjMCA2LjY5MSA1LjgxOCAxMC42MjggMTIuMzQ2IDEyLjU0NyA3LjgxNiAyLjI5NyAxNS4zMTIgMi43MTMgMjQuNjY1IDAgNi4yMTYtMS44MDEgMTIuMzQ2LTUuNDIzIDEyLjM0Ni0xMi41NDd2LTkuNDEySDYzLjkzOHYtMy4xMzhoMzcuMDEyYzcuMTc2IDAgOS44NTItNS4wMDUgMTIuMzQ4LTEyLjUxOSAyLjU3OC03LjczNSAyLjQ2Ny0xNS4xNzQgMC0yNS4wOTYtMS43NzQtNy4xNDUtNS4xNjEtMTIuNTIxLTEyLjM0OC0xMi41MjFoLTkuMjY4ek03Ny44MDkgODcuOTI3YzIuNTYxIDAgNC42MzQgMi4wOTcgNC42MzQgNC42OTIgMCAyLjYwMi0yLjA3NCA0LjcxOS00LjYzNCA0LjcxOS0yLjU1IDAtNC42MzMtMi4xMTctNC42MzMtNC43MTkgMC0yLjU5NSAyLjA4My00LjY5MiA0LjYzMy00LjY5MnoiIHRyYW5zZm9ybT0idHJhbnNsYXRlKDAgMTAuMjYpIi8+PHJhZGlhbEdyYWRpZW50IGlkPSJweXRob24tb3JpZ2luYWwtYyIgY3g9IjE4MjUuNjc4IiBjeT0iNDQ0LjQ1IiByPSIyNi43NDMiIGdyYWRpZW50VHJhbnNmb3JtPSJtYXRyaXgoMCAtLjI0IC0xLjA1NSAwIDUzMi45NzkgNTU3LjU3NikiIGdyYWRpZW50VW5pdHM9InVzZXJTcGFjZU9uVXNlIj48c3RvcCBvZmZzZXQ9IjAiIHN0b3AtY29sb3I9IiNCOEI4QjgiIHN0b3Atb3BhY2l0eT0iLjQ5OCIvPjxzdG9wIG9mZnNldD0iMSIgc3RvcC1jb2xvcj0iIzdGN0Y3RiIgc3RvcC1vcGFjaXR5PSIwIi8+PC9yYWRpYWxHcmFkaWVudD48cGF0aCBvcGFjaXR5PSIuNDQ0IiBmaWxsPSJ1cmwoI3B5dGhvbi1vcmlnaW5hbC1jKSIgZD0iTTk3LjMwOSAxMTkuNTk3YzAgMy41NDMtMTQuODE2IDYuNDE2LTMzLjA5MSA2LjQxNi0xOC4yNzYgMC0zMy4wOTItMi44NzMtMzMuMDkyLTYuNDE2IDAtMy41NDQgMTQuODE1LTYuNDE3IDMzLjA5Mi02LjQxNyAxOC4yNzUgMCAzMy4wOTEgMi44NzIgMzMuMDkxIDYuNDE3eiIvPjwvc3ZnPg==" vertex="1" parent="1">
          <mxGeometry x="1440" y="45" width="70" height="70" as="geometry" />
        </mxCell>
        <mxCell id="rEFSV0ryo6aef3nmrS3--17" style="edgeStyle=orthogonalEdgeStyle;rounded=0;orthogonalLoop=1;jettySize=auto;html=1;" edge="1" source="rEFSV0ryo6aef3nmrS3--18" target="rEFSV0ryo6aef3nmrS3--24" parent="1">
          <mxGeometry relative="1" as="geometry" />
        </mxCell>
        <mxCell id="rEFSV0ryo6aef3nmrS3--18" value="3.13" style="shape=image;verticalLabelPosition=bottom;verticalAlign=top;imageAspect=0;aspect=fixed;image=data:image/svg+xml,PHN2ZyB4bWxucz0iaHR0cDovL3d3dy53My5vcmcvMjAwMC9zdmciIHZpZXdCb3g9IjAgMCAxMjggMTI4Ij48bGluZWFyR3JhZGllbnQgaWQ9InB5dGhvbi1vcmlnaW5hbC1hIiBncmFkaWVudFVuaXRzPSJ1c2VyU3BhY2VPblVzZSIgeDE9IjcwLjI1MiIgeTE9IjEyMzcuNDc2IiB4Mj0iMTcwLjY1OSIgeTI9IjExNTEuMDg5IiBncmFkaWVudFRyYW5zZm9ybT0ibWF0cml4KC41NjMgMCAwIC0uNTY4IC0yOS4yMTUgNzA3LjgxNykiPjxzdG9wIG9mZnNldD0iMCIgc3RvcC1jb2xvcj0iIzVBOUZENCIvPjxzdG9wIG9mZnNldD0iMSIgc3RvcC1jb2xvcj0iIzMwNjk5OCIvPjwvbGluZWFyR3JhZGllbnQ+PGxpbmVhckdyYWRpZW50IGlkPSJweXRob24tb3JpZ2luYWwtYiIgZ3JhZGllbnRVbml0cz0idXNlclNwYWNlT25Vc2UiIHgxPSIyMDkuNDc0IiB5MT0iMTA5OC44MTEiIHgyPSIxNzMuNjIiIHkyPSIxMTQ5LjUzNyIgZ3JhZGllbnRUcmFuc2Zvcm09Im1hdHJpeCguNTYzIDAgMCAtLjU2OCAtMjkuMjE1IDcwNy44MTcpIj48c3RvcCBvZmZzZXQ9IjAiIHN0b3AtY29sb3I9IiNGRkQ0M0IiLz48c3RvcCBvZmZzZXQ9IjEiIHN0b3AtY29sb3I9IiNGRkU4NzMiLz48L2xpbmVhckdyYWRpZW50PjxwYXRoIGZpbGw9InVybCgjcHl0aG9uLW9yaWdpbmFsLWEpIiBkPSJNNjMuMzkxIDEuOTg4Yy00LjIyMi4wMi04LjI1Mi4zNzktMTEuOCAxLjAwNy0xMC40NSAxLjg0Ni0xMi4zNDYgNS43MS0xMi4zNDYgMTIuODM3djkuNDExaDI0LjY5M3YzLjEzN0gyOS45NzdjLTcuMTc2IDAtMTMuNDYgNC4zMTMtMTUuNDI2IDEyLjUyMS0yLjI2OCA5LjQwNS0yLjM2OCAxNS4yNzUgMCAyNS4wOTYgMS43NTUgNy4zMTEgNS45NDcgMTIuNTE5IDEzLjEyNCAxMi41MTloOC40OTFWNjcuMjM0YzAtOC4xNTEgNy4wNTEtMTUuMzQgMTUuNDI2LTE1LjM0aDI0LjY2NWM2Ljg2NiAwIDEyLjM0Ni01LjY1NCAxMi4zNDYtMTIuNTQ4VjE1LjgzM2MwLTYuNjkzLTUuNjQ2LTExLjcyLTEyLjM0Ni0xMi44MzctNC4yNDQtLjcwNi04LjY0NS0xLjAyNy0xMi44NjYtMS4wMDh6TTUwLjAzNyA5LjU1N2MyLjU1IDAgNC42MzQgMi4xMTcgNC42MzQgNC43MjEgMCAyLjU5My0yLjA4MyA0LjY5LTQuNjM0IDQuNjktMi41NiAwLTQuNjMzLTIuMDk3LTQuNjMzLTQuNjktLjAwMS0yLjYwNCAyLjA3My00LjcyMSA0LjYzMy00LjcyMXoiIHRyYW5zZm9ybT0idHJhbnNsYXRlKDAgMTAuMjYpIi8+PHBhdGggZmlsbD0idXJsKCNweXRob24tb3JpZ2luYWwtYikiIGQ9Ik05MS42ODIgMjguMzh2MTAuOTY2YzAgOC41LTcuMjA4IDE1LjY1NS0xNS40MjYgMTUuNjU1SDUxLjU5MWMtNi43NTYgMC0xMi4zNDYgNS43ODMtMTIuMzQ2IDEyLjU0OXYyMy41MTVjMCA2LjY5MSA1LjgxOCAxMC42MjggMTIuMzQ2IDEyLjU0NyA3LjgxNiAyLjI5NyAxNS4zMTIgMi43MTMgMjQuNjY1IDAgNi4yMTYtMS44MDEgMTIuMzQ2LTUuNDIzIDEyLjM0Ni0xMi41NDd2LTkuNDEySDYzLjkzOHYtMy4xMzhoMzcuMDEyYzcuMTc2IDAgOS44NTItNS4wMDUgMTIuMzQ4LTEyLjUxOSAyLjU3OC03LjczNSAyLjQ2Ny0xNS4xNzQgMC0yNS4wOTYtMS43NzQtNy4xNDUtNS4xNjEtMTIuNTIxLTEyLjM0OC0xMi41MjFoLTkuMjY4ek03Ny44MDkgODcuOTI3YzIuNTYxIDAgNC42MzQgMi4wOTcgNC42MzQgNC42OTIgMCAyLjYwMi0yLjA3NCA0LjcxOS00LjYzNCA0LjcxOS0yLjU1IDAtNC42MzMtMi4xMTctNC42MzMtNC43MTkgMC0yLjU5NSAyLjA4My00LjY5MiA0LjYzMy00LjY5MnoiIHRyYW5zZm9ybT0idHJhbnNsYXRlKDAgMTAuMjYpIi8+PHJhZGlhbEdyYWRpZW50IGlkPSJweXRob24tb3JpZ2luYWwtYyIgY3g9IjE4MjUuNjc4IiBjeT0iNDQ0LjQ1IiByPSIyNi43NDMiIGdyYWRpZW50VHJhbnNmb3JtPSJtYXRyaXgoMCAtLjI0IC0xLjA1NSAwIDUzMi45NzkgNTU3LjU3NikiIGdyYWRpZW50VW5pdHM9InVzZXJTcGFjZU9uVXNlIj48c3RvcCBvZmZzZXQ9IjAiIHN0b3AtY29sb3I9IiNCOEI4QjgiIHN0b3Atb3BhY2l0eT0iLjQ5OCIvPjxzdG9wIG9mZnNldD0iMSIgc3RvcC1jb2xvcj0iIzdGN0Y3RiIgc3RvcC1vcGFjaXR5PSIwIi8+PC9yYWRpYWxHcmFkaWVudD48cGF0aCBvcGFjaXR5PSIuNDQ0IiBmaWxsPSJ1cmwoI3B5dGhvbi1vcmlnaW5hbC1jKSIgZD0iTTk3LjMwOSAxMTkuNTk3YzAgMy41NDMtMTQuODE2IDYuNDE2LTMzLjA5MSA2LjQxNi0xOC4yNzYgMC0zMy4wOTItMi44NzMtMzMuMDkyLTYuNDE2IDAtMy41NDQgMTQuODE1LTYuNDE3IDMzLjA5Mi02LjQxNyAxOC4yNzUgMCAzMy4wOTEgMi44NzIgMzMuMDkxIDYuNDE3eiIvPjwvc3ZnPg==" vertex="1" parent="1">
          <mxGeometry x="1440" y="255" width="70" height="70" as="geometry" />
        </mxCell>
        <mxCell id="rEFSV0ryo6aef3nmrS3--47" style="edgeStyle=orthogonalEdgeStyle;rounded=0;orthogonalLoop=1;jettySize=auto;html=1;" edge="1" parent="1" source="rEFSV0ryo6aef3nmrS3--20">
          <mxGeometry relative="1" as="geometry">
            <mxPoint x="1760" y="75" as="targetPoint" />
          </mxGeometry>
        </mxCell>
        <mxCell id="rEFSV0ryo6aef3nmrS3--20" value="project1" style="rounded=1;whiteSpace=wrap;html=1;fillColor=#ffe6cc;strokeColor=#d79b00;" vertex="1" parent="1">
          <mxGeometry x="1870" y="45" width="120" height="60" as="geometry" />
        </mxCell>
        <mxCell id="rEFSV0ryo6aef3nmrS3--55" style="edgeStyle=orthogonalEdgeStyle;rounded=0;orthogonalLoop=1;jettySize=auto;html=1;entryX=1;entryY=0.5;entryDx=0;entryDy=0;" edge="1" parent="1" source="rEFSV0ryo6aef3nmrS3--22" target="rEFSV0ryo6aef3nmrS3--49">
          <mxGeometry relative="1" as="geometry" />
        </mxCell>
        <mxCell id="rEFSV0ryo6aef3nmrS3--22" value="project2" style="rounded=1;whiteSpace=wrap;html=1;fillColor=#dae8fc;strokeColor=#6c8ebf;" vertex="1" parent="1">
          <mxGeometry x="1870" y="200" width="120" height="39" as="geometry" />
        </mxCell>
        <mxCell id="rEFSV0ryo6aef3nmrS3--23" value="libs" style="shape=cube;whiteSpace=wrap;html=1;boundedLbl=1;backgroundOutline=1;darkOpacity=0.05;darkOpacity2=0.1;" vertex="1" parent="1">
          <mxGeometry x="1220" y="40" width="120" height="80" as="geometry" />
        </mxCell>
        <mxCell id="rEFSV0ryo6aef3nmrS3--24" value="libs" style="shape=cube;whiteSpace=wrap;html=1;boundedLbl=1;backgroundOutline=1;darkOpacity=0.05;darkOpacity2=0.1;" vertex="1" parent="1">
          <mxGeometry x="1220" y="250" width="120" height="80" as="geometry" />
        </mxCell>
        <mxCell id="rEFSV0ryo6aef3nmrS3--56" style="edgeStyle=orthogonalEdgeStyle;rounded=0;orthogonalLoop=1;jettySize=auto;html=1;entryX=1;entryY=0.5;entryDx=0;entryDy=0;" edge="1" parent="1" source="rEFSV0ryo6aef3nmrS3--26" target="rEFSV0ryo6aef3nmrS3--50">
          <mxGeometry relative="1" as="geometry" />
        </mxCell>
        <mxCell id="rEFSV0ryo6aef3nmrS3--26" value="project3" style="rounded=1;whiteSpace=wrap;html=1;fillColor=#e1d5e7;strokeColor=#9673a6;" vertex="1" parent="1">
          <mxGeometry x="1870" y="270" width="120" height="40" as="geometry" />
        </mxCell>
        <mxCell id="rEFSV0ryo6aef3nmrS3--57" style="edgeStyle=orthogonalEdgeStyle;rounded=0;orthogonalLoop=1;jettySize=auto;html=1;entryX=1;entryY=0.5;entryDx=0;entryDy=0;" edge="1" parent="1" source="rEFSV0ryo6aef3nmrS3--28" target="rEFSV0ryo6aef3nmrS3--51">
          <mxGeometry relative="1" as="geometry" />
        </mxCell>
        <mxCell id="rEFSV0ryo6aef3nmrS3--28" value="project4" style="rounded=1;whiteSpace=wrap;html=1;fillColor=#d5e8d4;strokeColor=#82b366;" vertex="1" parent="1">
          <mxGeometry x="1870" y="340" width="120" height="40" as="geometry" />
        </mxCell>
        <mxCell id="rEFSV0ryo6aef3nmrS3--29" value="" style="shape=image;verticalLabelPosition=bottom;verticalAlign=top;imageAspect=0;aspect=fixed;image=data:image/svg+xml,PHN2ZyB4bWxucz0iaHR0cDovL3d3dy53My5vcmcvMjAwMC9zdmciIHZpZXdCb3g9IjAgMCAxMjggMTI4Ij4mI3hhOyAgICA8bGluZWFyR3JhZGllbnQgaWQ9ImEiIHgxPSIzOC43OCIgeDI9Ijk1LjkxIiB5MT0iNDEuNTkiIHkyPSI0MS41OSIgZ3JhZGllbnRVbml0cz0idXNlclNwYWNlT25Vc2UiPiYjeGE7ICAgICAgICA8c3RvcCBvZmZzZXQ9IjAiIHN0b3AtY29sb3I9IiMyMWQ3ODkiLz4mI3hhOyAgICAgICAgPHN0b3Agb2Zmc2V0PSIxIiBzdG9wLWNvbG9yPSIjMDdjM2YyIi8+JiN4YTsgICAgPC9saW5lYXJHcmFkaWVudD4mI3hhOyAgICA8bGluZWFyR3JhZGllbnQgaWQ9ImIiIHgxPSItMjkuMTgiIHgyPSI4OC40NiIgeTE9Ijg1LjUyIiB5Mj0iLTEuMzIiIGdyYWRpZW50VW5pdHM9InVzZXJTcGFjZU9uVXNlIj4mI3hhOyAgICAgICAgPHN0b3Agb2Zmc2V0PSIuMDEiIHN0b3AtY29sb3I9IiNmY2Y4NGEiLz4mI3hhOyAgICAgICAgPHN0b3Agb2Zmc2V0PSIuMTEiIHN0b3AtY29sb3I9IiNhN2ViNjIiLz4mI3hhOyAgICAgICAgPHN0b3Agb2Zmc2V0PSIuMjEiIHN0b3AtY29sb3I9IiM1ZmUwNzciLz4mI3hhOyAgICAgICAgPHN0b3Agb2Zmc2V0PSIuMjciIHN0b3AtY29sb3I9IiMzMmRhODQiLz4mI3hhOyAgICAgICAgPHN0b3Agb2Zmc2V0PSIuMzEiIHN0b3AtY29sb3I9IiMyMWQ3ODkiLz4mI3hhOyAgICAgICAgPHN0b3Agb2Zmc2V0PSIuNTgiIHN0b3AtY29sb3I9IiMyMWQ3ODkiLz4mI3hhOyAgICAgICAgPHN0b3Agb2Zmc2V0PSIuNiIgc3RvcC1jb2xvcj0iIzIxZDc4OSIvPiYjeGE7ICAgICAgICA8c3RvcCBvZmZzZXQ9Ii42OSIgc3RvcC1jb2xvcj0iIzIwZDY4YyIvPiYjeGE7ICAgICAgICA8c3RvcCBvZmZzZXQ9Ii43NiIgc3RvcC1jb2xvcj0iIzFlZDQ5NyIvPiYjeGE7ICAgICAgICA8c3RvcCBvZmZzZXQ9Ii44MyIgc3RvcC1jb2xvcj0iIzE5ZDFhOSIvPiYjeGE7ICAgICAgICA8c3RvcCBvZmZzZXQ9Ii45IiBzdG9wLWNvbG9yPSIjMTNjY2MyIi8+JiN4YTsgICAgICAgIDxzdG9wIG9mZnNldD0iLjk3IiBzdG9wLWNvbG9yPSIjMGJjNmUxIi8+JiN4YTsgICAgICAgIDxzdG9wIG9mZnNldD0iMSIgc3RvcC1jb2xvcj0iIzA3YzNmMiIvPiYjeGE7ICAgIDwvbGluZWFyR3JhZGllbnQ+JiN4YTsgICAgPGxpbmVhckdyYWRpZW50IGlkPSJjIiB4MT0iMTcuMyIgeDI9IjM2LjkyIiB5MT0iMTEwLjk5IiB5Mj0iNDkuNDIiIGdyYWRpZW50VW5pdHM9InVzZXJTcGFjZU9uVXNlIj4mI3hhOyAgICAgICAgPHN0b3Agb2Zmc2V0PSIwIiBzdG9wLWNvbG9yPSIjMjFkNzg5Ii8+JiN4YTsgICAgICAgIDxzdG9wIG9mZnNldD0iLjE2IiBzdG9wLWNvbG9yPSIjMjRkODg4Ii8+JiN4YTsgICAgICAgIDxzdG9wIG9mZnNldD0iLjMiIHN0b3AtY29sb3I9IiMyZmQ5ODUiLz4mI3hhOyAgICAgICAgPHN0b3Agb2Zmc2V0PSIuNDMiIHN0b3AtY29sb3I9IiM0MWRjODAiLz4mI3hhOyAgICAgICAgPHN0b3Agb2Zmc2V0PSIuNTUiIHN0b3AtY29sb3I9IiM1YWUwNzkiLz4mI3hhOyAgICAgICAgPHN0b3Agb2Zmc2V0PSIuNjciIHN0b3AtY29sb3I9IiM3YWU0NmYiLz4mI3hhOyAgICAgICAgPHN0b3Agb2Zmc2V0PSIuNzkiIHN0b3AtY29sb3I9IiNhMWVhNjQiLz4mI3hhOyAgICAgICAgPHN0b3Agb2Zmc2V0PSIuOSIgc3RvcC1jb2xvcj0iI2NmZjE1NyIvPiYjeGE7ICAgICAgICA8c3RvcCBvZmZzZXQ9IjEiIHN0b3AtY29sb3I9IiNmY2Y4NGEiLz4mI3hhOyAgICA8L2xpbmVhckdyYWRpZW50PiYjeGE7ICAgIDxsaW5lYXJHcmFkaWVudCBpZD0iZCIgeDE9IjQzLjI4IiB4Mj0iODUuOTciIHkxPSI1Ny40NiIgeTI9Ii4wNiIgZ3JhZGllbnRVbml0cz0idXNlclNwYWNlT25Vc2UiPiYjeGE7ICAgICAgICA8c3RvcCBvZmZzZXQ9IjAiIHN0b3AtY29sb3I9IiMyMWQ3ODkiLz4mI3hhOyAgICAgICAgPHN0b3Agb2Zmc2V0PSIuMDkiIHN0b3AtY29sb3I9IiMyM2Q5ODYiLz4mI3hhOyAgICAgICAgPHN0b3Agb2Zmc2V0PSIuMTciIHN0b3AtY29sb3I9IiMyYWRlN2IiLz4mI3hhOyAgICAgICAgPHN0b3Agb2Zmc2V0PSIuMjUiIHN0b3AtY29sb3I9IiMzNmU2NjkiLz4mI3hhOyAgICAgICAgPHN0b3Agb2Zmc2V0PSIuMjciIHN0b3AtY29sb3I9IiMzYmVhNjIiLz4mI3hhOyAgICAgICAgPHN0b3Agb2Zmc2V0PSIuMzUiIHN0b3AtY29sb3I9IiM0N2ViNjEiLz4mI3hhOyAgICAgICAgPHN0b3Agb2Zmc2V0PSIuNDkiIHN0b3AtY29sb3I9IiM2N2VkNWQiLz4mI3hhOyAgICAgICAgPHN0b3Agb2Zmc2V0PSIuNjkiIHN0b3AtY29sb3I9IiM5YWYxNTYiLz4mI3hhOyAgICAgICAgPHN0b3Agb2Zmc2V0PSIuOTIiIHN0b3AtY29sb3I9IiNlMGY2NGQiLz4mI3hhOyAgICAgICAgPHN0b3Agb2Zmc2V0PSIxIiBzdG9wLWNvbG9yPSIjZmNmODRhIi8+JiN4YTsgICAgPC9saW5lYXJHcmFkaWVudD4mI3hhOyAgICA8bGluZWFyR3JhZGllbnQgaWQ9ImUiIHgxPSIxMDguNTgiIHgyPSIyMi41NSIgeTE9IjY0Ljc3IiB5Mj0iNjMuOTciIGdyYWRpZW50VW5pdHM9InVzZXJTcGFjZU9uVXNlIj4mI3hhOyAgICAgICAgPHN0b3Agb2Zmc2V0PSIuMzkiIHN0b3AtY29sb3I9IiNmY2Y4NGEiLz4mI3hhOyAgICAgICAgPHN0b3Agb2Zmc2V0PSIuNDYiIHN0b3AtY29sb3I9IiNlY2Y3NGMiLz4mI3hhOyAgICAgICAgPHN0b3Agb2Zmc2V0PSIuNjEiIHN0b3AtY29sb3I9IiNjMWY0NTEiLz4mI3hhOyAgICAgICAgPHN0b3Agb2Zmc2V0PSIuODIiIHN0b3AtY29sb3I9IiM3ZWVmNWEiLz4mI3hhOyAgICAgICAgPHN0b3Agb2Zmc2V0PSIxIiBzdG9wLWNvbG9yPSIjM2JlYTYyIi8+JiN4YTsgICAgPC9saW5lYXJHcmFkaWVudD4mI3hhOyAgICA8cGF0aCBmaWxsPSJ1cmwoI2EpIiBkPSJtODcuNTQgMjMuOTU0IDM0LjE5NCAyOC40NC0xMi4zMTIgMjUuMDUxLTIwLjYxNC01LjcxN0g3MC45NzN6Ii8+JiN4YTsgICAgPHBhdGggZmlsbD0idXJsKCNiKSIgZD0ibTUzLjA5IDQyLjQyMy02LjYxOSAzNS4wMjMtLjYzNCAxMS44OTgtMTYuNjg5IDcuMjI5LTIzLjY2MiAyLjU0OCA3LjE4LTc1LjY2Nkw1NS41NCA1LjQ4NmwyNi40MTcgMTcuMzIzeiIvPiYjeGE7ICAgIDxwYXRoIGZpbGw9InVybCgjYykiIGQ9Im01My4wOSA0Mi40MjMgMy4yMTggNjcuNDg2LTEwLjY5MSAxMi42MDVMNS40ODYgOTkuMTIxbDMyLjk1MS00OS4xMDN6Ii8+JiN4YTsgICAgPHBhdGggZmlsbD0idXJsKCNkKSIgZD0iTTk3LjI0MyAzNy40OThINTYuNjk4TDkyLjUyNiA1LjQ4NnoiLz4mI3hhOyAgICA8cGF0aCBmaWxsPSJ1cmwoI2UpIiBkPSJNMTIyLjUxNCAxMTAuMTc4IDg2LjgyIDEyMi4yOTUgMzkuMjg5IDEwOC45MSA1My4wOSA0Mi40MjNsNS41MS00LjkyNSAyOC45NC0yLjcxOC0yLjYyMSAyOS4wNjIgMjMuMDE2LTguOTIzeiIvPiYjeGE7ICAgIDxwYXRoIGQ9Ik0yNy40MjkgMjcuNDI5aDczLjE0M3Y3My4xNDNIMjcuNDI5eiIvPiYjeGE7ICAgIDxwYXRoIGZpbGw9IiNmZmYiIGQ9Ik0zNi41NDcgODYuNzQ3aDI3LjQyOXY0LjU3MUgzNi41NDd6bS4wMjQtNTAuMTc2aDExLjIxNWM2LjUzNCAwIDEwLjQ5NiAzLjg3NyAxMC40OTYgOS40NzJ2LjA3M2MwIDYuMzM5LTQuOTM3IDkuNjMtMTEuMDgxIDkuNjNoLTQuNTM0djguMjE2aC02LjA5NXptMTAuODAxIDEzLjgxMmMzLjAxMSAwIDQuNzc5LTEuNzkyIDQuNzc5LTQuMTQ1di0uMDczYzAtMi43MDYtMS44NzctNC4xNTctNC44NzYtNC4xNTdoLTQuNjA4djguMzc1em0xNC4xNzgtLjAyNHYtLjA3M0ExMy45MDkgMTMuOTA5IDAgMCAxIDc1LjgyNSAzNi4xMmExNC4xMjkgMTQuMTI5IDAgMCAxIDEwLjgwMSA0LjIxOGwtMy44MjggNC40MjVhMTAuMTU1IDEwLjE1NSAwIDAgMC03LjAxLTMuMDk2Yy00LjYyIDAtNy45NDggMy44NC03Ljk0OCA4LjUzM3YuMDg1YzAgNC42OTMgMy4yNTUgOC42MDYgNy45NDggOC42MDYgMy4xMzMgMCA1LjA0Ny0xLjIxOSA3LjIwNS0zLjIwNmwzLjgyOCAzLjg2NGExMy45NyAxMy45NyAwIDAgMS0xMS4yMjcgNC44NzYgMTMuODM2IDEzLjgzNiAwIDAgMS0xNC4wNDMtMTQuMDY4Ii8+JiN4YTs8L3N2Zz4=" vertex="1" parent="1">
          <mxGeometry x="1937" y="-43" width="60" height="60" as="geometry" />
        </mxCell>
        <mxCell id="rEFSV0ryo6aef3nmrS3--48" value="libs" style="shape=cube;whiteSpace=wrap;html=1;boundedLbl=1;backgroundOutline=1;darkOpacity=0.05;darkOpacity2=0.1;size=8;fillColor=#ffe6cc;strokeColor=#d79b00;" vertex="1" parent="1">
          <mxGeometry x="1623" y="52" width="67.5" height="45" as="geometry" />
        </mxCell>
        <mxCell id="rEFSV0ryo6aef3nmrS3--49" value="3.13" style="shape=image;verticalLabelPosition=bottom;verticalAlign=top;imageAspect=0;aspect=fixed;image=data:image/svg+xml,PHN2ZyB4bWxucz0iaHR0cDovL3d3dy53My5vcmcvMjAwMC9zdmciIHZpZXdCb3g9IjAgMCAxMjggMTI4Ij48bGluZWFyR3JhZGllbnQgaWQ9InB5dGhvbi1vcmlnaW5hbC1hIiBncmFkaWVudFVuaXRzPSJ1c2VyU3BhY2VPblVzZSIgeDE9IjcwLjI1MiIgeTE9IjEyMzcuNDc2IiB4Mj0iMTcwLjY1OSIgeTI9IjExNTEuMDg5IiBncmFkaWVudFRyYW5zZm9ybT0ibWF0cml4KC41NjMgMCAwIC0uNTY4IC0yOS4yMTUgNzA3LjgxNykiPjxzdG9wIG9mZnNldD0iMCIgc3RvcC1jb2xvcj0iIzVBOUZENCIvPjxzdG9wIG9mZnNldD0iMSIgc3RvcC1jb2xvcj0iIzMwNjk5OCIvPjwvbGluZWFyR3JhZGllbnQ+PGxpbmVhckdyYWRpZW50IGlkPSJweXRob24tb3JpZ2luYWwtYiIgZ3JhZGllbnRVbml0cz0idXNlclNwYWNlT25Vc2UiIHgxPSIyMDkuNDc0IiB5MT0iMTA5OC44MTEiIHgyPSIxNzMuNjIiIHkyPSIxMTQ5LjUzNyIgZ3JhZGllbnRUcmFuc2Zvcm09Im1hdHJpeCguNTYzIDAgMCAtLjU2OCAtMjkuMjE1IDcwNy44MTcpIj48c3RvcCBvZmZzZXQ9IjAiIHN0b3AtY29sb3I9IiNGRkQ0M0IiLz48c3RvcCBvZmZzZXQ9IjEiIHN0b3AtY29sb3I9IiNGRkU4NzMiLz48L2xpbmVhckdyYWRpZW50PjxwYXRoIGZpbGw9InVybCgjcHl0aG9uLW9yaWdpbmFsLWEpIiBkPSJNNjMuMzkxIDEuOTg4Yy00LjIyMi4wMi04LjI1Mi4zNzktMTEuOCAxLjAwNy0xMC40NSAxLjg0Ni0xMi4zNDYgNS43MS0xMi4zNDYgMTIuODM3djkuNDExaDI0LjY5M3YzLjEzN0gyOS45NzdjLTcuMTc2IDAtMTMuNDYgNC4zMTMtMTUuNDI2IDEyLjUyMS0yLjI2OCA5LjQwNS0yLjM2OCAxNS4yNzUgMCAyNS4wOTYgMS43NTUgNy4zMTEgNS45NDcgMTIuNTE5IDEzLjEyNCAxMi41MTloOC40OTFWNjcuMjM0YzAtOC4xNTEgNy4wNTEtMTUuMzQgMTUuNDI2LTE1LjM0aDI0LjY2NWM2Ljg2NiAwIDEyLjM0Ni01LjY1NCAxMi4zNDYtMTIuNTQ4VjE1LjgzM2MwLTYuNjkzLTUuNjQ2LTExLjcyLTEyLjM0Ni0xMi44MzctNC4yNDQtLjcwNi04LjY0NS0xLjAyNy0xMi44NjYtMS4wMDh6TTUwLjAzNyA5LjU1N2MyLjU1IDAgNC42MzQgMi4xMTcgNC42MzQgNC43MjEgMCAyLjU5My0yLjA4MyA0LjY5LTQuNjM0IDQuNjktMi41NiAwLTQuNjMzLTIuMDk3LTQuNjMzLTQuNjktLjAwMS0yLjYwNCAyLjA3My00LjcyMSA0LjYzMy00LjcyMXoiIHRyYW5zZm9ybT0idHJhbnNsYXRlKDAgMTAuMjYpIi8+PHBhdGggZmlsbD0idXJsKCNweXRob24tb3JpZ2luYWwtYikiIGQ9Ik05MS42ODIgMjguMzh2MTAuOTY2YzAgOC41LTcuMjA4IDE1LjY1NS0xNS40MjYgMTUuNjU1SDUxLjU5MWMtNi43NTYgMC0xMi4zNDYgNS43ODMtMTIuMzQ2IDEyLjU0OXYyMy41MTVjMCA2LjY5MSA1LjgxOCAxMC42MjggMTIuMzQ2IDEyLjU0NyA3LjgxNiAyLjI5NyAxNS4zMTIgMi43MTMgMjQuNjY1IDAgNi4yMTYtMS44MDEgMTIuMzQ2LTUuNDIzIDEyLjM0Ni0xMi41NDd2LTkuNDEySDYzLjkzOHYtMy4xMzhoMzcuMDEyYzcuMTc2IDAgOS44NTItNS4wMDUgMTIuMzQ4LTEyLjUxOSAyLjU3OC03LjczNSAyLjQ2Ny0xNS4xNzQgMC0yNS4wOTYtMS43NzQtNy4xNDUtNS4xNjEtMTIuNTIxLTEyLjM0OC0xMi41MjFoLTkuMjY4ek03Ny44MDkgODcuOTI3YzIuNTYxIDAgNC42MzQgMi4wOTcgNC42MzQgNC42OTIgMCAyLjYwMi0yLjA3NCA0LjcxOS00LjYzNCA0LjcxOS0yLjU1IDAtNC42MzMtMi4xMTctNC42MzMtNC43MTkgMC0yLjU5NSAyLjA4My00LjY5MiA0LjYzMy00LjY5MnoiIHRyYW5zZm9ybT0idHJhbnNsYXRlKDAgMTAuMjYpIi8+PHJhZGlhbEdyYWRpZW50IGlkPSJweXRob24tb3JpZ2luYWwtYyIgY3g9IjE4MjUuNjc4IiBjeT0iNDQ0LjQ1IiByPSIyNi43NDMiIGdyYWRpZW50VHJhbnNmb3JtPSJtYXRyaXgoMCAtLjI0IC0xLjA1NSAwIDUzMi45NzkgNTU3LjU3NikiIGdyYWRpZW50VW5pdHM9InVzZXJTcGFjZU9uVXNlIj48c3RvcCBvZmZzZXQ9IjAiIHN0b3AtY29sb3I9IiNCOEI4QjgiIHN0b3Atb3BhY2l0eT0iLjQ5OCIvPjxzdG9wIG9mZnNldD0iMSIgc3RvcC1jb2xvcj0iIzdGN0Y3RiIgc3RvcC1vcGFjaXR5PSIwIi8+PC9yYWRpYWxHcmFkaWVudD48cGF0aCBvcGFjaXR5PSIuNDQ0IiBmaWxsPSJ1cmwoI3B5dGhvbi1vcmlnaW5hbC1jKSIgZD0iTTk3LjMwOSAxMTkuNTk3YzAgMy41NDMtMTQuODE2IDYuNDE2LTMzLjA5MSA2LjQxNi0xOC4yNzYgMC0zMy4wOTItMi44NzMtMzMuMDkyLTYuNDE2IDAtMy41NDQgMTQuODE1LTYuNDE3IDMzLjA5Mi02LjQxNyAxOC4yNzUgMCAzMy4wOTEgMi44NzIgMzMuMDkxIDYuNDE3eiIvPjwvc3ZnPg==" vertex="1" parent="1">
          <mxGeometry x="1728" y="202" width="35" height="35" as="geometry" />
        </mxCell>
        <mxCell id="rEFSV0ryo6aef3nmrS3--50" value="3.13" style="shape=image;verticalLabelPosition=bottom;verticalAlign=top;imageAspect=0;aspect=fixed;image=data:image/svg+xml,PHN2ZyB4bWxucz0iaHR0cDovL3d3dy53My5vcmcvMjAwMC9zdmciIHZpZXdCb3g9IjAgMCAxMjggMTI4Ij48bGluZWFyR3JhZGllbnQgaWQ9InB5dGhvbi1vcmlnaW5hbC1hIiBncmFkaWVudFVuaXRzPSJ1c2VyU3BhY2VPblVzZSIgeDE9IjcwLjI1MiIgeTE9IjEyMzcuNDc2IiB4Mj0iMTcwLjY1OSIgeTI9IjExNTEuMDg5IiBncmFkaWVudFRyYW5zZm9ybT0ibWF0cml4KC41NjMgMCAwIC0uNTY4IC0yOS4yMTUgNzA3LjgxNykiPjxzdG9wIG9mZnNldD0iMCIgc3RvcC1jb2xvcj0iIzVBOUZENCIvPjxzdG9wIG9mZnNldD0iMSIgc3RvcC1jb2xvcj0iIzMwNjk5OCIvPjwvbGluZWFyR3JhZGllbnQ+PGxpbmVhckdyYWRpZW50IGlkPSJweXRob24tb3JpZ2luYWwtYiIgZ3JhZGllbnRVbml0cz0idXNlclNwYWNlT25Vc2UiIHgxPSIyMDkuNDc0IiB5MT0iMTA5OC44MTEiIHgyPSIxNzMuNjIiIHkyPSIxMTQ5LjUzNyIgZ3JhZGllbnRUcmFuc2Zvcm09Im1hdHJpeCguNTYzIDAgMCAtLjU2OCAtMjkuMjE1IDcwNy44MTcpIj48c3RvcCBvZmZzZXQ9IjAiIHN0b3AtY29sb3I9IiNGRkQ0M0IiLz48c3RvcCBvZmZzZXQ9IjEiIHN0b3AtY29sb3I9IiNGRkU4NzMiLz48L2xpbmVhckdyYWRpZW50PjxwYXRoIGZpbGw9InVybCgjcHl0aG9uLW9yaWdpbmFsLWEpIiBkPSJNNjMuMzkxIDEuOTg4Yy00LjIyMi4wMi04LjI1Mi4zNzktMTEuOCAxLjAwNy0xMC40NSAxLjg0Ni0xMi4zNDYgNS43MS0xMi4zNDYgMTIuODM3djkuNDExaDI0LjY5M3YzLjEzN0gyOS45NzdjLTcuMTc2IDAtMTMuNDYgNC4zMTMtMTUuNDI2IDEyLjUyMS0yLjI2OCA5LjQwNS0yLjM2OCAxNS4yNzUgMCAyNS4wOTYgMS43NTUgNy4zMTEgNS45NDcgMTIuNTE5IDEzLjEyNCAxMi41MTloOC40OTFWNjcuMjM0YzAtOC4xNTEgNy4wNTEtMTUuMzQgMTUuNDI2LTE1LjM0aDI0LjY2NWM2Ljg2NiAwIDEyLjM0Ni01LjY1NCAxMi4zNDYtMTIuNTQ4VjE1LjgzM2MwLTYuNjkzLTUuNjQ2LTExLjcyLTEyLjM0Ni0xMi44MzctNC4yNDQtLjcwNi04LjY0NS0xLjAyNy0xMi44NjYtMS4wMDh6TTUwLjAzNyA5LjU1N2MyLjU1IDAgNC42MzQgMi4xMTcgNC42MzQgNC43MjEgMCAyLjU5My0yLjA4MyA0LjY5LTQuNjM0IDQuNjktMi41NiAwLTQuNjMzLTIuMDk3LTQuNjMzLTQuNjktLjAwMS0yLjYwNCAyLjA3My00LjcyMSA0LjYzMy00LjcyMXoiIHRyYW5zZm9ybT0idHJhbnNsYXRlKDAgMTAuMjYpIi8+PHBhdGggZmlsbD0idXJsKCNweXRob24tb3JpZ2luYWwtYikiIGQ9Ik05MS42ODIgMjguMzh2MTAuOTY2YzAgOC41LTcuMjA4IDE1LjY1NS0xNS40MjYgMTUuNjU1SDUxLjU5MWMtNi43NTYgMC0xMi4zNDYgNS43ODMtMTIuMzQ2IDEyLjU0OXYyMy41MTVjMCA2LjY5MSA1LjgxOCAxMC42MjggMTIuMzQ2IDEyLjU0NyA3LjgxNiAyLjI5NyAxNS4zMTIgMi43MTMgMjQuNjY1IDAgNi4yMTYtMS44MDEgMTIuMzQ2LTUuNDIzIDEyLjM0Ni0xMi41NDd2LTkuNDEySDYzLjkzOHYtMy4xMzhoMzcuMDEyYzcuMTc2IDAgOS44NTItNS4wMDUgMTIuMzQ4LTEyLjUxOSAyLjU3OC03LjczNSAyLjQ2Ny0xNS4xNzQgMC0yNS4wOTYtMS43NzQtNy4xNDUtNS4xNjEtMTIuNTIxLTEyLjM0OC0xMi41MjFoLTkuMjY4ek03Ny44MDkgODcuOTI3YzIuNTYxIDAgNC42MzQgMi4wOTcgNC42MzQgNC42OTIgMCAyLjYwMi0yLjA3NCA0LjcxOS00LjYzNCA0LjcxOS0yLjU1IDAtNC42MzMtMi4xMTctNC42MzMtNC43MTkgMC0yLjU5NSAyLjA4My00LjY5MiA0LjYzMy00LjY5MnoiIHRyYW5zZm9ybT0idHJhbnNsYXRlKDAgMTAuMjYpIi8+PHJhZGlhbEdyYWRpZW50IGlkPSJweXRob24tb3JpZ2luYWwtYyIgY3g9IjE4MjUuNjc4IiBjeT0iNDQ0LjQ1IiByPSIyNi43NDMiIGdyYWRpZW50VHJhbnNmb3JtPSJtYXRyaXgoMCAtLjI0IC0xLjA1NSAwIDUzMi45NzkgNTU3LjU3NikiIGdyYWRpZW50VW5pdHM9InVzZXJTcGFjZU9uVXNlIj48c3RvcCBvZmZzZXQ9IjAiIHN0b3AtY29sb3I9IiNCOEI4QjgiIHN0b3Atb3BhY2l0eT0iLjQ5OCIvPjxzdG9wIG9mZnNldD0iMSIgc3RvcC1jb2xvcj0iIzdGN0Y3RiIgc3RvcC1vcGFjaXR5PSIwIi8+PC9yYWRpYWxHcmFkaWVudD48cGF0aCBvcGFjaXR5PSIuNDQ0IiBmaWxsPSJ1cmwoI3B5dGhvbi1vcmlnaW5hbC1jKSIgZD0iTTk3LjMwOSAxMTkuNTk3YzAgMy41NDMtMTQuODE2IDYuNDE2LTMzLjA5MSA2LjQxNi0xOC4yNzYgMC0zMy4wOTItMi44NzMtMzMuMDkyLTYuNDE2IDAtMy41NDQgMTQuODE1LTYuNDE3IDMzLjA5Mi02LjQxNyAxOC4yNzUgMCAzMy4wOTEgMi44NzIgMzMuMDkxIDYuNDE3eiIvPjwvc3ZnPg==" vertex="1" parent="1">
          <mxGeometry x="1731" y="272" width="35" height="35" as="geometry" />
        </mxCell>
        <mxCell id="rEFSV0ryo6aef3nmrS3--51" value="3.13" style="shape=image;verticalLabelPosition=bottom;verticalAlign=top;imageAspect=0;aspect=fixed;image=data:image/svg+xml,PHN2ZyB4bWxucz0iaHR0cDovL3d3dy53My5vcmcvMjAwMC9zdmciIHZpZXdCb3g9IjAgMCAxMjggMTI4Ij48bGluZWFyR3JhZGllbnQgaWQ9InB5dGhvbi1vcmlnaW5hbC1hIiBncmFkaWVudFVuaXRzPSJ1c2VyU3BhY2VPblVzZSIgeDE9IjcwLjI1MiIgeTE9IjEyMzcuNDc2IiB4Mj0iMTcwLjY1OSIgeTI9IjExNTEuMDg5IiBncmFkaWVudFRyYW5zZm9ybT0ibWF0cml4KC41NjMgMCAwIC0uNTY4IC0yOS4yMTUgNzA3LjgxNykiPjxzdG9wIG9mZnNldD0iMCIgc3RvcC1jb2xvcj0iIzVBOUZENCIvPjxzdG9wIG9mZnNldD0iMSIgc3RvcC1jb2xvcj0iIzMwNjk5OCIvPjwvbGluZWFyR3JhZGllbnQ+PGxpbmVhckdyYWRpZW50IGlkPSJweXRob24tb3JpZ2luYWwtYiIgZ3JhZGllbnRVbml0cz0idXNlclNwYWNlT25Vc2UiIHgxPSIyMDkuNDc0IiB5MT0iMTA5OC44MTEiIHgyPSIxNzMuNjIiIHkyPSIxMTQ5LjUzNyIgZ3JhZGllbnRUcmFuc2Zvcm09Im1hdHJpeCguNTYzIDAgMCAtLjU2OCAtMjkuMjE1IDcwNy44MTcpIj48c3RvcCBvZmZzZXQ9IjAiIHN0b3AtY29sb3I9IiNGRkQ0M0IiLz48c3RvcCBvZmZzZXQ9IjEiIHN0b3AtY29sb3I9IiNGRkU4NzMiLz48L2xpbmVhckdyYWRpZW50PjxwYXRoIGZpbGw9InVybCgjcHl0aG9uLW9yaWdpbmFsLWEpIiBkPSJNNjMuMzkxIDEuOTg4Yy00LjIyMi4wMi04LjI1Mi4zNzktMTEuOCAxLjAwNy0xMC40NSAxLjg0Ni0xMi4zNDYgNS43MS0xMi4zNDYgMTIuODM3djkuNDExaDI0LjY5M3YzLjEzN0gyOS45NzdjLTcuMTc2IDAtMTMuNDYgNC4zMTMtMTUuNDI2IDEyLjUyMS0yLjI2OCA5LjQwNS0yLjM2OCAxNS4yNzUgMCAyNS4wOTYgMS43NTUgNy4zMTEgNS45NDcgMTIuNTE5IDEzLjEyNCAxMi41MTloOC40OTFWNjcuMjM0YzAtOC4xNTEgNy4wNTEtMTUuMzQgMTUuNDI2LTE1LjM0aDI0LjY2NWM2Ljg2NiAwIDEyLjM0Ni01LjY1NCAxMi4zNDYtMTIuNTQ4VjE1LjgzM2MwLTYuNjkzLTUuNjQ2LTExLjcyLTEyLjM0Ni0xMi44MzctNC4yNDQtLjcwNi04LjY0NS0xLjAyNy0xMi44NjYtMS4wMDh6TTUwLjAzNyA5LjU1N2MyLjU1IDAgNC42MzQgMi4xMTcgNC42MzQgNC43MjEgMCAyLjU5My0yLjA4MyA0LjY5LTQuNjM0IDQuNjktMi41NiAwLTQuNjMzLTIuMDk3LTQuNjMzLTQuNjktLjAwMS0yLjYwNCAyLjA3My00LjcyMSA0LjYzMy00LjcyMXoiIHRyYW5zZm9ybT0idHJhbnNsYXRlKDAgMTAuMjYpIi8+PHBhdGggZmlsbD0idXJsKCNweXRob24tb3JpZ2luYWwtYikiIGQ9Ik05MS42ODIgMjguMzh2MTAuOTY2YzAgOC41LTcuMjA4IDE1LjY1NS0xNS40MjYgMTUuNjU1SDUxLjU5MWMtNi43NTYgMC0xMi4zNDYgNS43ODMtMTIuMzQ2IDEyLjU0OXYyMy41MTVjMCA2LjY5MSA1LjgxOCAxMC42MjggMTIuMzQ2IDEyLjU0NyA3LjgxNiAyLjI5NyAxNS4zMTIgMi43MTMgMjQuNjY1IDAgNi4yMTYtMS44MDEgMTIuMzQ2LTUuNDIzIDEyLjM0Ni0xMi41NDd2LTkuNDEySDYzLjkzOHYtMy4xMzhoMzcuMDEyYzcuMTc2IDAgOS44NTItNS4wMDUgMTIuMzQ4LTEyLjUxOSAyLjU3OC03LjczNSAyLjQ2Ny0xNS4xNzQgMC0yNS4wOTYtMS43NzQtNy4xNDUtNS4xNjEtMTIuNTIxLTEyLjM0OC0xMi41MjFoLTkuMjY4ek03Ny44MDkgODcuOTI3YzIuNTYxIDAgNC42MzQgMi4wOTcgNC42MzQgNC42OTIgMCAyLjYwMi0yLjA3NCA0LjcxOS00LjYzNCA0LjcxOS0yLjU1IDAtNC42MzMtMi4xMTctNC42MzMtNC43MTkgMC0yLjU5NSAyLjA4My00LjY5MiA0LjYzMy00LjY5MnoiIHRyYW5zZm9ybT0idHJhbnNsYXRlKDAgMTAuMjYpIi8+PHJhZGlhbEdyYWRpZW50IGlkPSJweXRob24tb3JpZ2luYWwtYyIgY3g9IjE4MjUuNjc4IiBjeT0iNDQ0LjQ1IiByPSIyNi43NDMiIGdyYWRpZW50VHJhbnNmb3JtPSJtYXRyaXgoMCAtLjI0IC0xLjA1NSAwIDUzMi45NzkgNTU3LjU3NikiIGdyYWRpZW50VW5pdHM9InVzZXJTcGFjZU9uVXNlIj48c3RvcCBvZmZzZXQ9IjAiIHN0b3AtY29sb3I9IiNCOEI4QjgiIHN0b3Atb3BhY2l0eT0iLjQ5OCIvPjxzdG9wIG9mZnNldD0iMSIgc3RvcC1jb2xvcj0iIzdGN0Y3RiIgc3RvcC1vcGFjaXR5PSIwIi8+PC9yYWRpYWxHcmFkaWVudD48cGF0aCBvcGFjaXR5PSIuNDQ0IiBmaWxsPSJ1cmwoI3B5dGhvbi1vcmlnaW5hbC1jKSIgZD0iTTk3LjMwOSAxMTkuNTk3YzAgMy41NDMtMTQuODE2IDYuNDE2LTMzLjA5MSA2LjQxNi0xOC4yNzYgMC0zMy4wOTItMi44NzMtMzMuMDkyLTYuNDE2IDAtMy41NDQgMTQuODE1LTYuNDE3IDMzLjA5Mi02LjQxNyAxOC4yNzUgMCAzMy4wOTEgMi44NzIgMzMuMDkxIDYuNDE3eiIvPjwvc3ZnPg==" vertex="1" parent="1">
          <mxGeometry x="1733" y="343" width="35" height="35" as="geometry" />
        </mxCell>
        <mxCell id="rEFSV0ryo6aef3nmrS3--52" value="libs" style="shape=cube;whiteSpace=wrap;html=1;boundedLbl=1;backgroundOutline=1;darkOpacity=0.05;darkOpacity2=0.1;size=8;fillColor=#dae8fc;strokeColor=#6c8ebf;" vertex="1" parent="1">
          <mxGeometry x="1627" y="205" width="67.5" height="45" as="geometry" />
        </mxCell>
        <mxCell id="rEFSV0ryo6aef3nmrS3--53" value="libs" style="shape=cube;whiteSpace=wrap;html=1;boundedLbl=1;backgroundOutline=1;darkOpacity=0.05;darkOpacity2=0.1;size=8;fillColor=#e1d5e7;strokeColor=#9673a6;" vertex="1" parent="1">
          <mxGeometry x="1633" y="272" width="67.5" height="45" as="geometry" />
        </mxCell>
        <mxCell id="rEFSV0ryo6aef3nmrS3--54" value="libs" style="shape=cube;whiteSpace=wrap;html=1;boundedLbl=1;backgroundOutline=1;darkOpacity=0.05;darkOpacity2=0.1;size=8;fillColor=#d5e8d4;strokeColor=#82b366;" vertex="1" parent="1">
          <mxGeometry x="1635" y="343" width="67.5" height="45" as="geometry" />
        </mxCell>
        <mxCell id="rEFSV0ryo6aef3nmrS3--62" style="edgeStyle=orthogonalEdgeStyle;rounded=1;orthogonalLoop=1;jettySize=auto;html=1;curved=0;" edge="1" parent="1" source="rEFSV0ryo6aef3nmrS3--58" target="rEFSV0ryo6aef3nmrS3--48">
          <mxGeometry relative="1" as="geometry">
            <Array as="points">
              <mxPoint x="1861" y="20" />
              <mxPoint x="1655" y="20" />
            </Array>
          </mxGeometry>
        </mxCell>
        <mxCell id="rEFSV0ryo6aef3nmrS3--58" value="pip install flask" style="text;html=1;align=center;verticalAlign=middle;resizable=0;points=[];autosize=1;strokeColor=none;fillColor=none;fontFamily=Lucida Console;" vertex="1" parent="1">
          <mxGeometry x="1786" y="-28" width="150" height="30" as="geometry" />
        </mxCell>
        <mxCell id="rEFSV0ryo6aef3nmrS3--64" style="edgeStyle=orthogonalEdgeStyle;rounded=0;orthogonalLoop=1;jettySize=auto;html=1;fillColor=#f8cecc;strokeColor=#b85450;" edge="1" parent="1" source="rEFSV0ryo6aef3nmrS3--59" target="rEFSV0ryo6aef3nmrS3--23">
          <mxGeometry relative="1" as="geometry" />
        </mxCell>
        <mxCell id="rEFSV0ryo6aef3nmrS3--59" value="pip install flask" style="text;html=1;align=center;verticalAlign=middle;resizable=0;points=[];autosize=1;strokeColor=none;fillColor=none;fontFamily=Lucida Console;" vertex="1" parent="1">
          <mxGeometry x="1204.82" y="-94" width="150" height="30" as="geometry" />
        </mxCell>
        <mxCell id="rEFSV0ryo6aef3nmrS3--60" value="3.11" style="shape=image;verticalLabelPosition=bottom;verticalAlign=top;imageAspect=0;aspect=fixed;image=data:image/svg+xml,PHN2ZyB4bWxucz0iaHR0cDovL3d3dy53My5vcmcvMjAwMC9zdmciIHZpZXdCb3g9IjAgMCAxMjggMTI4Ij48bGluZWFyR3JhZGllbnQgaWQ9InB5dGhvbi1vcmlnaW5hbC1hIiBncmFkaWVudFVuaXRzPSJ1c2VyU3BhY2VPblVzZSIgeDE9IjcwLjI1MiIgeTE9IjEyMzcuNDc2IiB4Mj0iMTcwLjY1OSIgeTI9IjExNTEuMDg5IiBncmFkaWVudFRyYW5zZm9ybT0ibWF0cml4KC41NjMgMCAwIC0uNTY4IC0yOS4yMTUgNzA3LjgxNykiPjxzdG9wIG9mZnNldD0iMCIgc3RvcC1jb2xvcj0iIzVBOUZENCIvPjxzdG9wIG9mZnNldD0iMSIgc3RvcC1jb2xvcj0iIzMwNjk5OCIvPjwvbGluZWFyR3JhZGllbnQ+PGxpbmVhckdyYWRpZW50IGlkPSJweXRob24tb3JpZ2luYWwtYiIgZ3JhZGllbnRVbml0cz0idXNlclNwYWNlT25Vc2UiIHgxPSIyMDkuNDc0IiB5MT0iMTA5OC44MTEiIHgyPSIxNzMuNjIiIHkyPSIxMTQ5LjUzNyIgZ3JhZGllbnRUcmFuc2Zvcm09Im1hdHJpeCguNTYzIDAgMCAtLjU2OCAtMjkuMjE1IDcwNy44MTcpIj48c3RvcCBvZmZzZXQ9IjAiIHN0b3AtY29sb3I9IiNGRkQ0M0IiLz48c3RvcCBvZmZzZXQ9IjEiIHN0b3AtY29sb3I9IiNGRkU4NzMiLz48L2xpbmVhckdyYWRpZW50PjxwYXRoIGZpbGw9InVybCgjcHl0aG9uLW9yaWdpbmFsLWEpIiBkPSJNNjMuMzkxIDEuOTg4Yy00LjIyMi4wMi04LjI1Mi4zNzktMTEuOCAxLjAwNy0xMC40NSAxLjg0Ni0xMi4zNDYgNS43MS0xMi4zNDYgMTIuODM3djkuNDExaDI0LjY5M3YzLjEzN0gyOS45NzdjLTcuMTc2IDAtMTMuNDYgNC4zMTMtMTUuNDI2IDEyLjUyMS0yLjI2OCA5LjQwNS0yLjM2OCAxNS4yNzUgMCAyNS4wOTYgMS43NTUgNy4zMTEgNS45NDcgMTIuNTE5IDEzLjEyNCAxMi41MTloOC40OTFWNjcuMjM0YzAtOC4xNTEgNy4wNTEtMTUuMzQgMTUuNDI2LTE1LjM0aDI0LjY2NWM2Ljg2NiAwIDEyLjM0Ni01LjY1NCAxMi4zNDYtMTIuNTQ4VjE1LjgzM2MwLTYuNjkzLTUuNjQ2LTExLjcyLTEyLjM0Ni0xMi44MzctNC4yNDQtLjcwNi04LjY0NS0xLjAyNy0xMi44NjYtMS4wMDh6TTUwLjAzNyA5LjU1N2MyLjU1IDAgNC42MzQgMi4xMTcgNC42MzQgNC43MjEgMCAyLjU5My0yLjA4MyA0LjY5LTQuNjM0IDQuNjktMi41NiAwLTQuNjMzLTIuMDk3LTQuNjMzLTQuNjktLjAwMS0yLjYwNCAyLjA3My00LjcyMSA0LjYzMy00LjcyMXoiIHRyYW5zZm9ybT0idHJhbnNsYXRlKDAgMTAuMjYpIi8+PHBhdGggZmlsbD0idXJsKCNweXRob24tb3JpZ2luYWwtYikiIGQ9Ik05MS42ODIgMjguMzh2MTAuOTY2YzAgOC41LTcuMjA4IDE1LjY1NS0xNS40MjYgMTUuNjU1SDUxLjU5MWMtNi43NTYgMC0xMi4zNDYgNS43ODMtMTIuMzQ2IDEyLjU0OXYyMy41MTVjMCA2LjY5MSA1LjgxOCAxMC42MjggMTIuMzQ2IDEyLjU0NyA3LjgxNiAyLjI5NyAxNS4zMTIgMi43MTMgMjQuNjY1IDAgNi4yMTYtMS44MDEgMTIuMzQ2LTUuNDIzIDEyLjM0Ni0xMi41NDd2LTkuNDEySDYzLjkzOHYtMy4xMzhoMzcuMDEyYzcuMTc2IDAgOS44NTItNS4wMDUgMTIuMzQ4LTEyLjUxOSAyLjU3OC03LjczNSAyLjQ2Ny0xNS4xNzQgMC0yNS4wOTYtMS43NzQtNy4xNDUtNS4xNjEtMTIuNTIxLTEyLjM0OC0xMi41MjFoLTkuMjY4ek03Ny44MDkgODcuOTI3YzIuNTYxIDAgNC42MzQgMi4wOTcgNC42MzQgNC42OTIgMCAyLjYwMi0yLjA3NCA0LjcxOS00LjYzNCA0LjcxOS0yLjU1IDAtNC42MzMtMi4xMTctNC42MzMtNC43MTkgMC0yLjU5NSAyLjA4My00LjY5MiA0LjYzMy00LjY5MnoiIHRyYW5zZm9ybT0idHJhbnNsYXRlKDAgMTAuMjYpIi8+PHJhZGlhbEdyYWRpZW50IGlkPSJweXRob24tb3JpZ2luYWwtYyIgY3g9IjE4MjUuNjc4IiBjeT0iNDQ0LjQ1IiByPSIyNi43NDMiIGdyYWRpZW50VHJhbnNmb3JtPSJtYXRyaXgoMCAtLjI0IC0xLjA1NSAwIDUzMi45NzkgNTU3LjU3NikiIGdyYWRpZW50VW5pdHM9InVzZXJTcGFjZU9uVXNlIj48c3RvcCBvZmZzZXQ9IjAiIHN0b3AtY29sb3I9IiNCOEI4QjgiIHN0b3Atb3BhY2l0eT0iLjQ5OCIvPjxzdG9wIG9mZnNldD0iMSIgc3RvcC1jb2xvcj0iIzdGN0Y3RiIgc3RvcC1vcGFjaXR5PSIwIi8+PC9yYWRpYWxHcmFkaWVudD48cGF0aCBvcGFjaXR5PSIuNDQ0IiBmaWxsPSJ1cmwoI3B5dGhvbi1vcmlnaW5hbC1jKSIgZD0iTTk3LjMwOSAxMTkuNTk3YzAgMy41NDMtMTQuODE2IDYuNDE2LTMzLjA5MSA2LjQxNi0xOC4yNzYgMC0zMy4wOTItMi44NzMtMzMuMDkyLTYuNDE2IDAtMy41NDQgMTQuODE1LTYuNDE3IDMzLjA5Mi02LjQxNyAxOC4yNzUgMCAzMy4wOTEgMi44NzIgMzMuMDkxIDYuNDE3eiIvPjwvc3ZnPg==" vertex="1" parent="1">
          <mxGeometry x="1714" y="50" width="50" height="50" as="geometry" />
        </mxCell>
        <mxCell id="rEFSV0ryo6aef3nmrS3--61" value="" style="sketch=0;outlineConnect=0;fontColor=#232F3E;gradientColor=none;fillColor=#ED7100;strokeColor=none;dashed=0;verticalLabelPosition=bottom;verticalAlign=top;align=center;html=1;fontSize=12;fontStyle=0;aspect=fixed;pointerEvents=1;shape=mxgraph.aws4.ecs_copilot_cli;" vertex="1" parent="1">
          <mxGeometry x="1766" y="-24" width="21.82" height="20" as="geometry" />
        </mxCell>
        <mxCell id="rEFSV0ryo6aef3nmrS3--63" value="" style="sketch=0;outlineConnect=0;fontColor=#232F3E;gradientColor=none;fillColor=#ED7100;strokeColor=none;dashed=0;verticalLabelPosition=bottom;verticalAlign=top;align=center;html=1;fontSize=12;fontStyle=0;aspect=fixed;pointerEvents=1;shape=mxgraph.aws4.ecs_copilot_cli;" vertex="1" parent="1">
          <mxGeometry x="1182.9999999999998" y="-89" width="21.82" height="20" as="geometry" />
        </mxCell>
      </root>
    </mxGraphModel>
  </diagram>
  <diagram id="9FB_3ST_qCYLBgka1IQy" name="Страница — 2">
    <mxGraphModel dx="2226" dy="1241" grid="1" gridSize="10" guides="1" tooltips="1" connect="1" arrows="1" fold="1" page="0" pageScale="1" pageWidth="900" pageHeight="1600" math="0" shadow="0">
      <root>
        <mxCell id="0" />
        <mxCell id="1" parent="0" />
        <mxCell id="ng85jkkkvSCnqqJY3Lj3-30" value="" style="rounded=1;whiteSpace=wrap;html=1;arcSize=3;fillColor=none;dashed=1;" vertex="1" parent="1">
          <mxGeometry x="-78.66" y="-80" width="277.31" height="300" as="geometry" />
        </mxCell>
        <mxCell id="ng85jkkkvSCnqqJY3Lj3-1" value="notes" style="rounded=1;whiteSpace=wrap;html=1;fillColor=#d5e8d4;strokeColor=#82b366;" vertex="1" parent="1">
          <mxGeometry x="-290" y="-90" width="120" height="60" as="geometry" />
        </mxCell>
        <mxCell id="ng85jkkkvSCnqqJY3Lj3-2" value="" style="shape=image;verticalLabelPosition=bottom;verticalAlign=top;imageAspect=0;aspect=fixed;image=data:image/svg+xml,PHN2ZyB4bWxucz0iaHR0cDovL3d3dy53My5vcmcvMjAwMC9zdmciIHZlcnNpb249IjEuMCIgdmlld0JveD0iMCAwIDEyOCAxMjgiIGZpbGw9IiMwOTJlMjAiPjxwYXRoIGQ9Ik01OS40NDggMGgyMC45M3Y5Ni44OGMtMTAuNzM3IDIuMDQtMTguNjIgMi44NTUtMjcuMTgxIDIuODU1LTI1LjU1MS0uMDAxLTM4Ljg3LTExLjU1MS0zOC44Ny0zMy43MDUgMC0yMS4zMzggMTQuMTM1LTM1LjIgMzYuMDE1LTM1LjIgMy4zOTggMCA1Ljk4LjI3MiA5LjEwNiAxLjA4N3ptMCA0OC43NjVjLTIuNDQ2LS44MTUtNC40ODUtMS4wODYtNy4wNjctMS4wODYtMTAuNiAwLTE2LjcxNyA2LjUyMy0xNi43MTcgMTcuOTM5IDAgMTEuMTQ1IDUuODQ1IDE3LjI2IDE2LjU4MiAxNy4yNiAyLjMwOSAwIDQuMjEyLS4xMzYgNy4yMDItLjU0MnoiLz48cGF0aCBkPSJNMTEzLjY3MiAzMi4zMjFWODAuODRjMCAxNi43MTctMS4yMjQgMjQuNzM1LTQuODkzIDMxLjY2Ni0zLjM5OCA2LjY2MS03Ljg4MyAxMC44NzMtMTcuMTI0IDE1LjQ5NGwtMTkuNDM1LTkuMjQxYzkuMjQyLTQuMzUgMTMuNzI2LTguMTUzIDE2LjU4LTE0IDIuOTktNS45NzkgMy45NDMtMTIuOTEgMy45NDMtMzEuMTIyVjMyLjMyMXpNOTIuNzQyLjExMWgyMC45M3YyMS40NzRoLTIwLjkzeiIvPjwvc3ZnPg==" vertex="1" parent="1">
          <mxGeometry x="-117.31" y="-310" width="70" height="70" as="geometry" />
        </mxCell>
        <mxCell id="ng85jkkkvSCnqqJY3Lj3-3" value="app2" style="rounded=1;whiteSpace=wrap;html=1;fillColor=#e1d5e7;strokeColor=#9673a6;" vertex="1" parent="1">
          <mxGeometry x="-600" y="50" width="120" height="60" as="geometry" />
        </mxCell>
        <mxCell id="ng85jkkkvSCnqqJY3Lj3-4" value="app3" style="rounded=1;whiteSpace=wrap;html=1;fillColor=#e1d5e7;strokeColor=#9673a6;" vertex="1" parent="1">
          <mxGeometry x="-600" y="120" width="120" height="60" as="geometry" />
        </mxCell>
        <mxCell id="ng85jkkkvSCnqqJY3Lj3-6" style="edgeStyle=orthogonalEdgeStyle;rounded=0;orthogonalLoop=1;jettySize=auto;html=1;" edge="1" parent="1" source="ng85jkkkvSCnqqJY3Lj3-5" target="ng85jkkkvSCnqqJY3Lj3-1">
          <mxGeometry relative="1" as="geometry" />
        </mxCell>
        <mxCell id="ng85jkkkvSCnqqJY3Lj3-5" value="" style="shape=image;verticalLabelPosition=bottom;labelBackgroundColor=default;verticalAlign=top;aspect=fixed;imageAspect=0;image=data:image/png,iVBORw0KGgoAAAANSUhEUgAAAKcAAADDCAYAAADncwGgAAAAAXNSR0IArs4c6QAAAARnQU1BAACxjwv8YQUAAAAJcEhZcwAADsMAAA7DAcdvqGQAABwbSURBVHhe7Z0JWBPXwoa/hB1FUESoCyoIiDtuWBXR1t7qb9WqoHitVOtW1/ZqbbWLVavW1rqvoKJo3UDqtdq6g7gVBERUFK31qoAg4AYCss4/k0wgRBICDPEMOe9z83Tm5OQgl4+zzMzLkbRt34kBhUIgUv6/FApx0HBSiEWwYf399wfCy8sbJiYmfAnwJOMJflqxHKkpj/gSCkV7BAvn5i1bsWHDOlkgFbi7u6Nfv35YuvQHpKen86W6wbjzaHzVNQWb/MLwRCLhSyliQrBw7tq1B19+OZc/K6V3794YMmQof1bKixcvsDMwADHR0XyJsJgNWIwDH9zB9Om7kUjDKUokHn3fZZ4+Ke3tlGlgbQ1176miLpzqaNG8BcaM+QgzZ03jS+QwjBNGL5sAHNyFPE8feLq+BcMnN3Fqpx8O38nh65jBaeDHGNOvPZpaFeLx31E4GrgPEelFsvedvH/ArIEuaF7vFZKTnuPByR+x/M8U2edacZ97pwOaWRXhyZ2LOBgYjGj+cxJrN4wc541eLnYwK8jA7TOB2BxyA9k03G8Eqe/H49Gnbz/+tBSujHuvprj/4D4srSz5M2XM0dDeGe9PHAWbhN+xbcNOnHvVERO+ngg3Q4YNGODgswzLxzogOWwX1m8KwVX0xher5sKjrnwQSD6/GzvPJQJPYxHk74eDUU9kn2sxcgmW+zTF/RMBWLcxCNHoh3lLJqCNrF07DJ/3LYZY38Ghzb9gS0g86g/7CtM8rGRtUnSPNGCbP7p171EmoNwxV8a9VxVat26Nr7/5VvbijiuPEZ6Hb4H/8WjcuH4RB3aeRGKD9ujUgn3L1AM+I+wQsXEBth2PxLW4cwhesRjBGW9j9DBH2adzUu/gZmo2kJ+Ou/E3cDc9HzDxwGivBghduQi7zkTjetx5BK9cgWOSQRjRh1vEOaKVA3Dj5D6Exd5ETGggls6ej+0Rz2VtUnSPNDMzE1u3bCwJqCKYXBn3XlUYMXwEtmzaKHtxx5UnH0lJSiv8B3dxL7ceLOqzx82c4GAcj5iIXPl7LBLJI0RGJ6GJgzOMuS6yPOxbwdEkHw3dx2HixEmy16QJ/dCMkaKJvT1b4RouXshE92kbsORzXwz1bId6WUl4WkiH9DeF7DqnckCrG0xhYIdZ+TSQRz6cyzA1hklhAfLLvA/ksWUSExOUXshSwcwUpihGUVFRmdeDiEM4/88rNuBZOL96JmavOYK7jD08fBfCL2ANxrYz4xug6JqSi/CKgAoRzJDfQvDptOmyF3csKA+S8ciIHYJblfZo3ELH1bEJMpMTkaW8eGEPS84esp+TFOHeye3YsSNA9goI2IE9e3Zhz/kkWRVD0yIkXTyMnWuXYM7EidiU0AReXp4wVdcbU2qUMneIuFAK0WMmJCRg2dIlshd3LCiZp3H0vDkGTh0HN2sjMFIztOw/E6O7pOKPo7F8JbYnZb+PPBsXdHGwQR1jtuD5KRy9UB9DZoxFhwYGYCRmeKvHZKzeuw3TOrLnVoOxdJ8/5rzXFGZsos0bstMHWxO8fJqBPHmTFB0j2O3L7JwcWDe05s8qhqvLfaaySCS5OL9pMQ5kuGP+9mCEBO3HqnE2iFq9DEH3i/laQFFECHbHWGHEyh1YNcZJ9rlzGxch6FlPfB0QIvuc/5zuSD+0DruvFgLPjmNrwC20nLwZ+4IOYu/2eej2LASrdkSxQVbqjSk6o0ZvX2oiLy8PBw8G48SJY3xJ5ZGYWMHWsgjpjzNRpCZAUlNzmORnI7e49H2JoSVsbU2R/fgxsthcKiMxtICNnSUb1lSkvyygwXyD0EfmKMQi2LBOoQgNDSeFWGg4KcRCw0khFhpOCrHQcFKIhYaTQiw0nBRioeGkEAuRd4jelMnJSB0xeNZQmJzciJCbunvc4019XdIhsuf8cNhwrFm7WuYkKV5nw8Mw76t5sLGx4WvVAMb10di+JZpYm/IFNQNnhn43uS+sFY/i6ejrig0ie07STE6hoWaodggaTk225hs1OQ/tB971gUcLc2TE/4kdm8Jh8eGn8PZwhZ1RGmKDN8P/bBIK4czWnwyjfV9g9w0JGFiik9cnGNnbFY1MXuDu6UAcgzc+Mg3Gl3tulLb/ewiM3hsFj1bJ2PHxKlyq44JB//4QPdo4omm9AqRcP4Xd/v9FQq6kXDP0xz/qlv26Fdil2hiqtcEkFXRYJ9XkHOA7CCZRBxAQHAlp16lYsGYZxjqlIGxvAA7ftsC7s2ZggOxRVK5+S9jU4QJggDbjl+P7wQ2Q8Ls/1vkfRWKbSZjxf21g36iurHV5fRcMnjAcVvFHELDpD9wubgyvhcswvm0B4o74YW3ASWQ4+GLBdA8YscN4eWZo2a9bsV2q+L7UG6q1wyQVNJykmpxpYVsQGBqLmNA92HYqEQ3t0nFk9T6ERUXgqF8Ioouc0NqZr67AvC9GDrLA2fWLsTs0Gtdjw7Fn6VbESVTnhYZIOr4S6w+FI+LyHTyRpuDYuu8wd+EqhIRdQdyl37HlcCxM23WAC1u7XDNUGS3sUjkaDNVaYpIKGk6Fh6QIqCKY1fGSqm9y5uFxSgZ/zK76n78AMpLxULEozktBxgsTGKtmju3JmhveQlxMaXgkxTdw7ZZKmNj20x6V/qkdbtTMTryLzAZd0H+4Lz797Ct8490ehhYW7CRBC7S2SzUYqrXEJBV8ta4c0OoGUyiq5KcZSCEtZsD+rwzF5TSmXMRIW8J7+S74LxqHXvZGeJEYhz9PxCKLf79CtLZL1RuqtcUkrZFLSYqAChHMGjU5NfHgIZKkLujQ0ZAvYH/8Eme0da5AQ3Huj0Gu97B92kwsWrMd+347jsiM4teVZbYTK7cfq4xdqoHaYJLWSDg5uFAK0WPWqMmpiZdncPBEAfp/vgBj3+mOjp094TNvMroaqg7rKmRmIUvaFC6drGULIMNG7pjs5Q5OAFXwmhmqjJZ2qSZqi0laY+GsDroyOTUhkRQg1u9LLD2ZhdaDJ2D6hA9gfzsAu2JK54LlknwYW/c/gtucQOwPDsbun4bjZWQElH9NVc1QZbS1SzVSS0xS0dy+1IQQJmd5MFIDGDKFKGLkP1Du8lLf+UEY9+x7jPe7IStTh4GZDRpb5uNRyvNKmaHKaGOXakLsJim1L9XAMBbo+9V6jC7ejxV+p3C/0BZt3h6CCVM9kbhqHFb+Re+B1zQ0nBqQ2vTGpP+MR/82NjBily/FWf9D5CE/rA+5gRyR9UJihIZTCyTsoqSuaSFeZufTP7KgQ4hcEJEGU5yLrBz61z90DQ0nhVhoOCnEQsNJIRYaTgqx0HBSiEXvLiVZ2PeFjdunMLHgNikA8rIeIj12C7IenpWdU8hB73pO2y4zkBa9jj+DLKRcmdBwRuUHn8/GiDYV34KtTF19Qu/CaWjWCM36/cKfyeHKBKcyRqVK3dfsTD1Fb+8QGVs0g+PQA/wZcOvXnvzRm4famXJqfTi5OaZt189gZG7Ll5QPF85Lm9vh8dMCrDuYgrDY6j2LKjck5Ublruuc1anellSuG+G6pNx9O6tDia0ZFIBX703C+y5WyEv7GxEHt+LAlaeyO1/mPadi6QfP4ff1XiTwj0Ez0k745KePgP3zsCNG5Y/n64BaP6w3cptSYTCZonwYGcp/ILYNjDBlqOb62lFqVFZkSyrXLd/OrC7yr//e9OnolHIM/uu24Peb5nj/u58xsZ2RrEb29f8h23Ug+rUvjYRht374V/NnuBdfwJfollofTqM6jfmj8mGKC/A0YR/cnGQpkvGWterj6UKgyZYspUI7s8oYwSR+L5b8egax12Nw5tcfsPa0EQaO7I+63Nw2Mxxnr5jj7T5ukLLn3LOrb3u4g4kMxYUKnq+uKfRqQVSQ8xgPT89Cwl5P2TDOvf4J6gv7nD2Y/1ETvlZNocmW1AUMEq5Ho5Cfw0okRYi9Go/i5g7gfj+4J/AvnL0M0x6e6GjAFhj1RO/uhbh4+nKVHnQWglofzoLs0kCk/LUMH/VIxNm1zrL5JfcKX98W6z5vIRvOFaQ8Eaq3Uka9LakbGBQWqiidhYUoUjI6cy+eRaS0O/p0MYRZr97oknUOZ+J0P9dUUOvDmRbrJ+sxOXIeX8Xod61L5pflwS2I/A7L679R2H+isP2VFC0cWvHHclo4OcIsJRkP+XMUReHspQK49/GAR+8uyAgPLVkcvQlqfTi5Oz93fxsmG8K5+aWxYem3POr7O+g59UaZ17Bvbld7pV5dNNqZWsCpxJ185mLOEGcYlHTPDGze+QSj21mxZQao384HUwfZ4cqJU0gvGeoZXAm7gDz3ifi4UwrCQ/+Wlb8p9GrOyVFYVDqWHlgkH97PbWjLl5CBJjtTO6zh3L0H3Ds7oB5fws15L/12Dg7/2Y6gkGDs/GEQcOpnrD/5lH9fTnH8aZx7Zom698NxJpEvfEPo3UX4kCXOZVbjX2x8gDk+b2HEt3f4ktdhDP+Fxb/NRGeVhQHD9kqckFynnAXDvb2f4rN98q2yqwpnZxozvTA/eFalv/asAykwLGbnlOywzDAdMfPX72C8YQRWRpmjYSNL5KenIKvo9c8yTDP4btyA1sc/xjdH3+zfVtK7cPZzq4cpH9rCvpF8GfAwLQ9+/32scSjnhknrt6zK/GEEDoYxQV3zAmTnvu6TF2amISNHZQFSBYT42srhXBX5eiA5uEtHdq27wKXzYEzpn4Zfpq9D7Kvy6+oKvb19qU8wTDtM2foljLaOxcYodeF0hu/ar9EzJx4nd2/AoVtv6OKmEjScFGLRuwURRTzQcFKIhYaTQiw0nBRioeGkEAsNJ4VYRHEpiRqT+okoek5qTOonoggnNSb1E1HdIaLGpH5BZDipMan4t4jPmBQSIod1akxyiNOYFBIiw0mNSQXiMyaFhPgFETUmxWVMCgmR4aTGpALxGZNCQmQ4qTGpQHzGpJAQGU5qTCq6Z/EZk0JC/JyTgxqT4jEmhUQUF+GpMSkeY1JIRBFOaky+HkgOEo1JIRHV7Ut9QqzGpJDQcFKIRRQLIop+QsNJIRYaTgqx0HBSiIWGk0IsNJwUYhHFpSRqX+onoug5dWVfKmjYcQAGuVXtyXpqZQqHKMKpM/uSp3nvjzC2b0v+rJJUxuCkaEQU4UzY20f+BPzhUXwJOx+RGvJHZCF5FQ3/2TOx7vwLvoRSVYiccwppXzLmzhj07w/Ro40jmtYrQMr1U9jt/18k5MrvVzOwREevTzCqtysambzA3dM7ccluPqYbb4DP6giUWJCH9gPv+sCjhTky4v/Ejk3hsPjwU3h7uMLOKA2xwZvhfzYJheCsTe0MTlWocVkWIntOoexLhmkMr4XLML5tAeKO+GFtwElkOPhiwXQPGPFCmOu4H7FwiDUSjvhjnf9RJLaZDN8uZnwLHHILcoDvIJhEHUBAcCSkXadiwZplGOvE/kLsDcDh2xZ4d9YMDLBW1NfW4FSFGpfKEBlO4ezLRzi27jvMXbgKIWFXEHfpd2w5HAvTdh3gwr1t5omRgyxxbsNi7D4Tjeux4dizNABxUtW2jJAWtgWBobGICd2DbacS0dAuHUdW70NYVASO+oUgusgJrZ356mXQzuAsRb+NS2WIn3NWx77knunNTryLzAZd0H+4Lz797Ct8490ehhYW7GDOwvZwzY1u4mp0nqw+h6Q4DtduqspyeXicksEfA0+es/PJjGQ8VHwsLwUZL0xgXO4aqLIGp34bl8oQGU6h7EtG2hLey3fBf9E49LI3wovEOPx5IhZZ/PswNoJRUREKVZ79LVA1Hlm4TqtqVNbg1G/jUhkiwymYfencH4Nc72H7tJlYtGY79v12HJEZxSU/ZLA9WqqRA5xalbbNME3RqqXynFPX6LdxqQyR4RTMvszMQpa0KVw6seFmuyvDRu6Y7OVeqk88C8PJy/Xw/pSP0am+IdvTWqCt12S8Y1d9VUMbqHGpGeLnnBxVti+TD2Pr/kdwmxOI/cHB2P3TcLyMjIAixhJJFs5s+Al/5PfDgh3BCAneiblto3Eg9Blfo6ahxqUmRHFvvSr2pTIGZjZobJmPRynP1S4aDCxs0cg4E2kZOTpdWDBSA2pcqkEUPeeGkFSZcalglredrExbinLTkZj6QmPoirIes4uqXJ2veCXFRbJgqiIpzsWT1NTXgsldOrJ16Q7Pf0/GALPTOHhaV7287qGCG0FQ47IsNJwUYhHFsE7RT2g4KcRCw0khFhpOCrHQcFKIhYaTQizUvqQQiyh6Tl3blxQyEEU4dW1fUshAVHeISN77kiI8RIZTV/alNrajNnU4JNZuGDnOG71c7GBWkIHbZwKxOeQGslUeJKGGpfYQOazryr7UxnbUpg7D2GH4vG8xxPoODm3+BVtC4lF/2FeY5mEle78s1LDUFiLDqTP7UkYFtqNWdRzRygG4cXIf23vfRExoIJbOno/tEeqes6SGpTYQvyCqUftShmbbUU5Fda7h4oVMdJ+2AUs+98VQz3aol5WEp4Xy+q9DDUttIDKcOrMvZVRsO1ZUh9M9zq+eidlrjuAuYw8P34XwC1iDse3UiXLUsNQGIsOpM/tShha2oxZ1DE2LkHTxMHauXYI5EydiU0ITeHl5wrRkaqAMNSy1gchw6sy+lFGx7VhRHcZqMJbu88ec95rCjP2IeUMnONia4OXTDOQWU8OyqhA/5+SoKftSjja2YwV1nh3H1oBbaDl5M/YFHcTe7fPQ7VkIVu2IYv8fbkgNyyoiiovwNWVfamM7VsaIlBhawMaOXWo9S0X6y4KSa6DUsKwaoug5dWFfqrMdlamoDlOYhbSkJKRlF5YEk4MallVDFOHk5pM+3/9dMsfkjsudY1aaIuTn5iDv9X1SldCmTmXQpj1H/GvqNIxun4mDv2yrVZutVgZqX1KIRRQ9J0U/oeGkEAsNJ4VYaDgpxELDSSEWGk4KsVD7kkIsoug5xWBfVma/TIaxRscBH6BLI3qJWROiCKcY7MvK7ZfZFB5jxsGzittr6guiCKeY9r6kCEetti8ru28l92AIt8OF08CPMaZfezS1KsTjv6NwNHAfItJLn1yvaL9MWR22nVZcO+90QDOrIjy5cxEHA4MRzbaj/GTSqkgJNTfVQGTPKZR9qTAdtd23knsW2MFnGZaPdUBy2C6s3xSCq+iNL1bNhUdd+e+wNvtlcu20GLkEy32a4v6JAKzbGIRo9MO8JRPQRmXPS2puqofIcApnX3JUYt9KUw/4jLBDxMYF2HY8EtfiziF4xWIEZ7yN0cMc5c1ps1+miQdGezVA6MpF2MXViTuP4JUrcEwyCCP6lJVEqLmpHuLnnNWxL+VUYt/KZk5wMI5HTETpT1EieYTI6CQ0cXCGMffD12a/TPtWcDTJR0P3cZg4cZLsNWlCPzRjpGhiL78cVgo1N9VBZDiFsi8VcJnSClNjmBQWIF9FjMxjyyQKM1Kb/TLNTGGKYhSx9ZRfDyIO4fw/r/hKcqi5qR4iwymYfVlZHiTjkRE7zJbZC9MMro5NkJmciCyu59Fmv8yHbDtsj3bv5Hbs2BEgewUE7MCePbuw53wSX6kUam6WD5HhFMy+rCyZp3H0vDkGTh0HN2sjdpVrhpb9Z2J0l1T8cTRWXkeb/TKfn8LRC/UxZMZYdGhgwK6izfBWj8lYvXcbpsnG2lKouake4uecHFW2LysJN187v2kxDmS4Y/72YIQE7ceqcTaIWr0MQffl47g2+2Vy7ZzbuAhBz3ri64AQWTv+c7oj/dA67L6qMrxSc1MtemFfVgWJiRVsLYuQ/jhT7UJCm/0yJYaWsLU1Rfbjx8jSMO2j5ubriKLnrK59WRWYvOdITcvSuMLVZr9MpvAFUpM1B5ODmpuvQwU3EaFve2PScFKIRRTDOkU/oeGkEAsNJ4VYaDgpxELDSSEWGk4KsVD7kkIsoug56d6X+okowlkd+9K482h8N7kvrLV+qFMzQrdHUY8owlkd+9KgkSu6dWgKc/68ugjdHkU9tdq+dPL+AbMGuqB5vVdITnqOByd/xPI/U6DJjORQZ0M2Hrmk3PaoPVkzENlzCmVfJp/fjZ3nEoGnsQjy98PBqCdsQDSbkZpsyPLbo/ZkTUFkOIWyL3NS7+BmajaQn4678TdwNz1fCzNSvQ1ZbnvUnqwxiJ9zVt++VKFCM7KyNiS1J2sKIsMptH1ZhgrMyMrakNSerDmIDKfg9iX70ZJPa2FGVmhDKrfHQu3JmoHIcAppX+ZlZiLPxgVdHGxQh5uWVmBGarIhOVFEtT1qT9Ycorh9yZmWhgZlew7OyOwzI54/Uw+3rfXQubMx0r0Fso/MxpQdf4Mxd8awGZ/Dp2djGBZIYMxk4MrhjVj5awwyYYxWQ+biy7E9YCvJB2MiwbNrh7Hxp0DEZElea29ywH219aMzm2HU6rXwytyKKd8fw1N0kglqJiHbYDp4EjpbStjvKxu3fl+PFTsj8YQp/R4ZxgGf+K/F0MxATPoiuCS4+oQowimEfSk1NYdJfjbbm5X+kDWZkepsSAWq7VF7UniIX61zCGFfFr/KKRNMDk1mpDobUoFqe9SeFB4quOkQfbMnqwsNJ4VYRDGsU/QTGk4KsdBwUoiFhpNCLDScFGKh4aQQiyguJVH7Uj8RRc9ZU/YlI3XEB5/Pxog2qtuvUEhAFOGssb0vjeujsX1LNLHm9nmhkIao7hAZWzSD49AD/JlccKPUXgwa2dot5I+JgZtj2r+7mh26P4NNhwklrwatvfkacjKubZc9Gf9Bz/pIe1aA+6mlD4dwcCbjz1Od8ODMdWTwD1/ITMafv4Db01DEPnLE6GXz4ZZ2EtfS5Ptetho4ETMnf4KPvAegl4slnv99C49yGNTpMwMrfN9CfHgCMiVsXbSB7/Lv4F3/LsJuyjcLYJxGYdm3vZB1OhqPGPmelqOmzcKU8WMwfEAvuJg+QtzNNBSoPEgitzK/RLsnD9Fq7Dx8Nn4k3uvhCqtnNxGfkst2IXIrU9P3cjVFZWOkWgCRw7pQ9iVnMr5srclk5GzIlrCpwwVEs5X58k4a0NUT3W3k7cCpBzzbtERHT3c04x8kduzhibavUnG7kGuPWpnVhchwCrb3ZWY4wrU1GSuyMlMiEJPkiE7dLGXV7bt2Qp1LZ3HFriO6NuTCaIOubs1wJ+qSrGelVmb1IX5BVB37UrYfUNhlmGhjMlZgZUokDxERlQpXt64wZqzQtWNjxP21E1EJjujYjf0lqecON4d7iLqUzjdIrczqQmQ4hbQv8/4KRYQ2JqMW+1XeiYxGVvvO6Fy3Kzo63sKVqAxcvvIP2nbqhnrd3eCSFIVI/hloamVWHyLDKah9WRSD0Av5FZuM2uxXeSsS0QUd0W10Z7jeu4LobPbfGnUFae27YEzn9uxxBB4q9WLUyqweRIZTSPuSMxmvnjmHXIXJeEaNyajNfpXMdURdMcQ7g3oi5cplPOWC+DAKV7I9MaBXDqIjS9umVmb1IX7OyVHtvS9vn0Z4BrcP5FmceX3TXhna7FfJhSPmcgwKDNIQGy1vSCK5i+jYF5BmRiMyQVYkh+5pWW30xr6sDNruV6kN1MqsOqLoOXW996W2+1VqA7Uyqw4V3AiAWpnlQ8NJIRZRDOsUfQT4f9Rzi9yNWwqvAAAAAElFTkSuQmCC;" vertex="1" parent="1">
          <mxGeometry x="-420" y="-117.5" width="98.49" height="115" as="geometry" />
        </mxCell>
        <mxCell id="ng85jkkkvSCnqqJY3Lj3-7" value="app1" style="rounded=1;whiteSpace=wrap;html=1;fillColor=#d5e8d4;strokeColor=#82b366;" vertex="1" parent="1">
          <mxGeometry x="-290" y="-20" width="120" height="60" as="geometry" />
        </mxCell>
        <mxCell id="ng85jkkkvSCnqqJY3Lj3-9" value="" style="shape=image;verticalLabelPosition=bottom;labelBackgroundColor=default;verticalAlign=top;aspect=fixed;imageAspect=0;image=data:image/png,iVBORw0KGgoAAAANSUhEUgAAAJUAAACJCAYAAAAltnqvAAAAAXNSR0IArs4c6QAAAARnQU1BAACxjwv8YQUAAAAJcEhZcwAADsMAAA7DAcdvqGQAABSXSURBVHhe7Z0JXBRlH8d/C8vpAYqIFyi34sEhHpmIlr3m65W3Zl7hlab1aplZWpqaveWFYoKKinlx5JG+HqmpqIFcmphIZioglyfIzTLvzOwACyzLwo7sDPt8P82nnWdmZ0f3x/M8M8zXv6RzVzcKBAKP6HH/JxB4g4SKwDskVATeIaEi8A4JFYF3SKgIvENCReAd3u9TDRo0GGPGjIWRkRHXAjx5/ATffb8WaamPuBbtQuk54J35wyA5tQVH7hRxrQS+4L2nemfkKGzctAGLF39atly4+BuWfLYElpaW3F5axsgCbW1t0dbCmGvQDEOPiVg2qz8sKHIfmYH3niooaB8bpMr07dsXw4eP4NbKefHiBXbvCURMdDTXIj5M3l6JQ0MTMW/eXiRJJFyr7lIWquYWFnj65AnbWBlV2ypTXaiqo0P7Dpg06T3MXzCXa5FDUY6YuMYHCA5E/lszMcjZHAUZfyEidDsOxT4FRX95ZfscC4PBW+Ph5ZCCXVPX4ypM4Th4KiYN6Ip25sVI/ysKx/ccQESmTOHYs2Bw4BPsjWeOYwIHZv83usHaXIYniVcQuicE0WX7m7DHe5fdXoKnd6/hCP3n/D1NBsex32DBYGe0b5qPlOTneHDmW6z9Xyr7Pl2lbPibMnU6+vUfwK2Vw7Qx214V9x/ch5m5GbemiCla2DjhrXnz4JZ6EgG+23DsT1MMWvZfzOhioLCPM4b5jIL5rV8QuPUE7pQAdhPWYO1kO6T8FoTNW8NwHX3xyfpP4dW4tFNm3mcLy0ZMYOhgj1uFtRPa4f7pQPj6BSMaA7BklQ9cpBS73Xb8avp49kg9vwd+O35BvIk3Pls9B6709pTwvdh9KQl4GofgAH+ERqn3w9eQKQtV4I4A9OjZu0KwmNdMG7OtLnTs2BFLv/iSXZjXtccARrf2Y9VP5xB3MwbnfvoGm84aYPC4gWhcNn+RIvnUOmw+fBER1xLxxLQfJoxuhQi/5dhxKhJ/3LiEkO9XIuTxa5g40p57jwJGXpg4pjnOr1uBoHPRuHkjHCHrvsdJyRCM7kdfbBjTxxvTGpFbl2M7fbzr104j6LsfsOP3bDRtAeSmJeLPtBygMBN3b8XjbmYhd2DdpSxUWVlZ2L7NryxYpYFi2phtdWH0qNHYttWPXZjXtYdCws1oFHPzFIlEhrjrt1DS3g4d2BaGAmQ8yuRe01g7ws7wFmIi8rgG5n2PEBmdjLZ2TjCsPJm2cYC9USFa9JqGGTNmsstMnwGwpvTQ1saGPh693fBPRP+ey72BPl7+bRzfEYTwNDJ/UkaFqz/FYGkaKH6gUFwsn9eUUVwMmZERym9YyIewMowNYVRchMJKbyug2ySV3sdiYgxjlEAmk1VYHkQcRvjf+fLjlRSjmB5WCepR5ZZCabD4CFTYz2GYM3ceuzCva48eOtg5cK/ldHC0h0lqCh5y61V4kIJHBvZwcCjvRZiJdif7tshKSUJ25auzh/T+dA9478xO7NoVyC6Bgbuwb18Q9oUnA0mP8EjfrtLxzGDv4QFbM4U005tJvyWnSqgYmDDx0UMlJCRgzepV7MK8rj0ULN94HxO7mEOf0kezLhPwwZBWiD39KzKru3TPOovj4aYY/ME0uFsYgNIzge3A+ZjYPQ0njsdxOynw/Fccv9wMwz+cjG7N9emrShO07j0LG/bvwFxXfXb7CeZ4c33gSR9Pom8Ol/GL8e3S0ejInUIB/XdVYOmM7naWaGQob9NllIZKE3Jyc2HRwoJbqxlmX+Y9yinE1Z8vwe4/OxEcFoLd3wwBfv0vNp95ym2vikSSh/CtK3HocS98vjMEYcEHsX6aJaI2rEHw/apjGLP/Jb8VCH7WB0sDw9j9Axb1ROZhX+y9XizfvnUFDmT2wGL6eKHBQfh2mDHObdiIk8/lqZJFhGFvjDlGr9uF9ZMc2TZdpl5+TaOKgoIChIaG4PTpk1yLHIpyxfyflsFwy2isizJFi5Zm9AVWKrJl6g8yEiNzWJnJkJmeBZlCz0ZRnlh4cDFK1o/FpqjydonUDFZWxshJT0d2MdeoAHu8ZnTnlf4M+VTV89AzNoVRYQ7yStQ/x4aIYJ9RVwzV+kj+viTK0Aru/56Bj+je68TsjxCartsBeBXwPvzxhwyFebko4Puqy3ogpgxtiTtB23AijWsj8IpgeyqCeBFwT0UQKyRUBN4hoSLwDgkVgXdIqAi8Q0JF4B1R3VJoYtMflu5zYNTEhl0vyH6IzLhtyH54gV0nCANR9VRW3T9ERrQvtwY2XEwb31B69hj68UKMdqn5V0212VdXEFWopCYtYT3gB25NDtPGO4bN0MZGTdum0r7ErBHpHXXDJtawH3GIWwNu/9SHe6V9iFkj8FAxcygrz49gYGrFtSiHCdXVH7sg/WkRfENT8VucZs+CKdo2QTed5MZOaBAKvCfAu1NrSJ/8iV93++NoYm6FfSM6reLdrFHHKjLt8wFWD30O/6X7kcA9KkjpueH9794DDi7Brhglj1y8QgQ9/LV0n11joChZIQyk8r9Iq+YGmD1C9f7qUW7blFo9g2aMh2XCMezYshuX8l3hs3QG3KXMz2P5vq/GrJF/viqrKOfmP8jpNBgDupZ/ndIeA/Cv9s9w71b9G9iCDpVBozbcK+VQJUV4mnAA7o7st8/S2uJVPHppgOcXtyHgVDTib17Bod1nkNS8K9zK7QuWV2fW1GAVZV3EhVhTvNbPHXr0OkXp4zWvXqAiz+Nyuf9Rb4hmol6Um46HZxcgYb83O9wxy9/B/WGTuw+fv9eW2+tVUYjkZIV/B+LBXdzLa4omzbj1V45qq4h5OvXyhWsw7u0N5gloGPRB357FuHL2WoWHE+sLQYeqKKf8i0z9fQ3e652EC5uc2PkTs1zc3Bm+H3dgh71SUp+8Cu+O/umvYOfIJdP6o2arKO/KBUTq9US/7lKYvN4X3bMv4dyN+p1LlSLoUGXE+bM9FENu+nVMfNOibP6kDGai7n9Uvr9WoU+R3/5BDatIFoULV4vQq58XvPp2x+OL58sm7fWNoEPF3Cm/+/NIdqhj5k+G0vLTHf9VIvp8EF9hGfnFHY2v/DRFU7OG0cncJnyKRcOdoF/WHdZsFUkkFGJ/u4yCXjMw1S0VF8//xbZrA9HMqRiKZeVjzqEV8mHw0pbOXIsw0NyssYBTz97o5WGHplyLulZRya2zuPTMDI3vX8Q5+iJUW4jq5mfYKqcKV3ef+D3AogmtMfrLRK6lKpT0X1j583x4VJqwUnQvwIhhjZRMZO/tn4OPDiRza3WDMWsMqdfxeciCWn/2gkOpkJbQcyZ6+KqNVURR1pjitwUdT03FF8efc631j6hCNcC9KWa/YwWblvLp6cOMAvgfSVc55DHDiUVrc1QeiSjKCI1Ni5CTV9WsKM7KwOPcShPjOsDHZ6tjFTG3EFp17A5nj2GYPTADP8zzRVy+8n3rA1H+mkaXoKgumL19MQy2T4afgqOoCEU5YcqmpeiTewtn9m7B4dtauDmlAAkVgXdENVEniAMSKgLvkFAReIeEisA7JFQE3iGhIvCOqG4pEJtGHIiqp6ovm6a2EKOmIqIKVb3ZNLWlNvaNDiDKO+pCtmkIAg8VnzYNZeqEIe++g94u9mjXtAipN3/F3oAjSMiT/z5NYuGOcdPG4nXnVjApeow75/bgx7B45EgkoGAGtzHvY1zfTmhp9AJ3z+7BSYzFe8YhWLwvHpVr3SgiRhtGUwQ9/PFl01BUG4z5eg2mdy7CjV/8sSnwDB7bTcHyeV4wYEWBVhi15EsMt0jE4R9/wLawW2g28jPM9TKnt+nDZfpafDWsORKOBcA34DiSXGbiw3+7wKZlY+4TFO2byojPhtEUQYeKP5vmEU76LsOnX69H2G+xuHH1GLYdjYNxl25wZrfbw8EOiD9zgO7l/kTM+T1YvfBz7Ix4TmeiP8YNaYILm1di7/lo3Iy7iH2rt+OGpDbzJ3HZMJoimom6JjYN8yxcTtJdZDXvjoGjpmDOR5/hi7FdIW3ShB7YGP7AlctZ6Dl3C1Z9PAUjvLugaXYynhbTb6R7oPbS27gRUy5USEri8cft2ggW4rJhNEXQoeLLpqH0bDF2bRACVkzD6zYGeJF0A/87HYdsbrtEko3wDfOxcOMvuEvZwGvK1/AP3IjJXUwAfT3olVCg/6tACdPDqI24bBhNEXSoeLNpnAZiSKd72Dl3PlZs3IkDP59C5OOSCsWPpMYyJF85it2bVmHRjBnYmtAWY8Z4w+j+QyTrOaObq5Tbk46IxAmdnWpzT0pcNoymCDpUvNk0WdnI1msHZzc6lHQPI23ZC7PG9Cp7zJcyH4bVBwKw6K12MKG/R9MWjrCzMsLLp49RkH0WoaeLMPDj5Zj8Rk+4enhjwpJZ8JQqH/4agg2jKaKZUzHU2aZJOYrtBx/BfdEeHAwJwd7vRuFlZATK4vfsFLYH3obtrB9xIDgU+3cuQY9nYVi/KwoS/WLE+S/G6jPZ6DjMB/N8hsLmTiCCYqqbQYvfhtEUUd38rItNo4i+iSXamBXiUepzpRNgibQJLFvRU/dnach8WcTeQ2Kg9PQhpeg5EFePhrk66/95MKY9+wrT/ePZNkXY/UVsw2iKqHqqLWFprEFTyoKxrdg2dZHlZSIp7UW1V1RUcTYykpORkVNcHiiqCfp/shN+iwbDvok+Hcw26PbmTIzsXoj4P5QPUZISGRuoykhK8vAkLa1KoJiQWjn3hPe7s/C2CT3cnn3GbREnRHxQAz3Lvpj5n+kY6GIJAzosJdn/IPKwPzaHxSO3moCWIkYbRlNIqGqBRM8EjY2L8TKnsKwnI1RFVMOftqHo4Ss7t3yuRVAOCRWBd0ioCLxDQkXgHRIqAu+QUBF4R1S3FIhNIw5E1VMJ1aZhIEZNOaIKlbZsGmX1Zqq0EaOmDFGFKmF/P/kTn0fHcy3MXe7y55xeFfotO6FHt3Yw5dYZKrdJ8qMRsHA+fMNfcC26i87YNCptGcoEDoOnYtIb3WBtLsOTxCsI3ROC6EwZHMd+U6XeTFijuVXavj3RuMyoqameDUNNhg6DqnNWRGjGjqB7Kv5sGlW2DNBh3CqsndAO908HwtcvGNEYgCWrfOAipZTWm1Feg0bRqJEbNNXVs1HH0FF1zlURlrEj6FDxZ9OosGWMvDBxTHOcX7cCQeeicfNGOELWfY+TkiEY3c9Iab0Z9WrQqKhno5aho+KclSIcY0c0cyrNatOosmUcYG9UiBa9pmHGjJnsMtNnAKwpPbS1kd+6qBsq6tmoZeioOGelCMfYEXSo+LJpVNoyJsYwRglkMlmF5UHEYYT/nc8doS7QvUF19WzUMHRUnrNShGPsCDpUfNamqd6WScEj+qf63pmd2LUrkF0CA3dh374g7AtX+Af66Y+t8snK2tThgXqGTnXnbKwQvnKEY+wIOlR82TQqbZnnZ3D8cjMM/3AyujXXp79cE7TuPQsb9u/AXHacUF5vRqMaNC/P1WjoqDrnvBJhGzuimVMx1NmmUWnL5OOS3woEP+uDpYFhCAs+iIBFPZF52Bd7r8uHBmX1ZjSpQSORFNVs6Kg4Z+i1ELSxo1M2TXW2TCkSqRmsrIyRk56ObCVTDabejFFhDt1TlL9PWZs6qGvoqDR8BGrsiKqn0tSmUWbLKEIVv0BaivJAMZTk51YJj7K2mqiNoVPdOQvZ2CHig5bQxNCpjNCMHRIqLdMQDR1RDX8NkYZo6JBQEXiHhIrAOyRUBN4hoSLwDgkVgXeITUPgHVH1VPVp01CUBVzfHoruLcltvNoiqlDVr03TDl6TpsHbllslqI2oQqUtm4ZQO3TCplFWO4aiPOCzcQSeb1qOsH84++VYGAzeGg8vhxQETj4Hz/3L2d/8r4+UiNZs0QaC7qn4smnktknl2jGNYGVrg+asa8Bsd8Ywn1Ewv/ULAreegOLDNGI2W7SBoEPFn02jDlIkn1qHzYcvIuJaIp7oKfZA4jVbtIFo5lSa2TTqUICMR5nc68qI12zRBoIOFV82jXLoeRL3qhSlPgGNmM0WbSDoUPFn0+QiP98Irdu24tZprNuidS3+9GI1W7SBoEPFW20aJOHvf/LhPOhdeHdoAYv2vTH9/TdhqeZ1r5jNFm0g6FBVpq42jUSSjwu7f0R4cR8s9N0Jv2XvACfCcEPNUInZbNEGOmXTUJQEpo2MUZiTW6cJsRjNFm0gqp5KU5uGGXLycvPqfIUlRrNFGxDxgWd0sRZNZUioCLwjquGPIA5IqAi8Q0JF4B0SKgLvkFAReIeEisA7xKYh8I6oeioh16ZRRNfr1IgqVNqqTVNrdLxOjSjvqBs2sYb9iEPcmlx8IAgHQYeKL5umUb8Psdo7CetWHkGSRAIKLpiydg6cYjZjWYj8OSbKcTzWfGCGI5/6I0qm2p6pqa6MMnunFF2wbQQ9/PFl07xMzAA8vdHTkmtw7A1vF1u4eveCNfdgnX1vb3TOT8Md+vtSXcum5royyu2dUhq+bSPoUPFm06RGICbZHm49zNhVG083NLp6AbGtXOHZggmRJTzdrZEYdRVZ7CMtKuwZterK1ETDtm1EM1HXxKaRSB4iIioNndw9YUiZw9O1DW78vhtRCfZw7UEHsmkvuNvdQ9TVUptGVS0bderK1ETDtm0EHSo+bZrEyGhkd/WAR2NPuNrfRmzUY1yL/Rud3XqgaU93OCdHIZJ73k+lPaNGXZmaadi2jaBDxWdtGtyORHSRK3pM9ECne7GIzqGPHxWLjK7dMcmjK/06Ag8VeoHqa9moV1dGNQ3bthF0qPizaWiom4iKleKNIX2QGnsNT5kAPYxCbI433n49F9GR5TaLylo22WdrrCujCFP1VNdsG9HMqRjqXJuGhvmSYq7FoEg/A3HR8upYEsldRMe9gF5WNCIT2CY5KmvZFNdcV6YCFjpn24jq5qemNk1tUWnPqFFXphRds21E1VNpatPUFmX2TG3qypSia7YNER/qgCZ1ZXTBtiGh0oCGWFeGD0Q1/AmNhlhXhg9IqAi8Q0JF4B0SKgLPAP8HEQZrGtMmbzEAAAAASUVORK5CYII=;" vertex="1" parent="1">
          <mxGeometry x="-64.62" y="-33.5" width="94.62" height="87" as="geometry" />
        </mxCell>
        <mxCell id="ng85jkkkvSCnqqJY3Lj3-10" value="project" style="rounded=1;whiteSpace=wrap;html=1;fillColor=#008a00;fontColor=#ffffff;strokeColor=#005700;" vertex="1" parent="1">
          <mxGeometry y="-80" width="120" height="60" as="geometry" />
        </mxCell>
        <mxCell id="ng85jkkkvSCnqqJY3Lj3-15" value="" style="group" vertex="1" connectable="0" parent="1">
          <mxGeometry x="10" y="-290" width="80" height="100" as="geometry" />
        </mxCell>
        <mxCell id="ng85jkkkvSCnqqJY3Lj3-14" value="" style="shape=note;whiteSpace=wrap;html=1;backgroundOutline=1;darkOpacity=0.05;fillColor=#d5e8d4;strokeColor=#82b366;" vertex="1" parent="ng85jkkkvSCnqqJY3Lj3-15">
          <mxGeometry width="80" height="100" as="geometry" />
        </mxCell>
        <UserObject label="manage.py" id="ng85jkkkvSCnqqJY3Lj3-12">
          <mxCell style="text;whiteSpace=wrap;" vertex="1" parent="ng85jkkkvSCnqqJY3Lj3-15">
            <mxGeometry x="6.34" y="70" width="67.31" height="30" as="geometry" />
          </mxCell>
        </UserObject>
        <mxCell id="ng85jkkkvSCnqqJY3Lj3-16" style="edgeStyle=orthogonalEdgeStyle;rounded=1;orthogonalLoop=1;jettySize=auto;html=1;entryX=0;entryY=0;entryDx=80;entryDy=65;entryPerimeter=0;curved=0;" edge="1" parent="1" source="ng85jkkkvSCnqqJY3Lj3-12" target="ng85jkkkvSCnqqJY3Lj3-18">
          <mxGeometry relative="1" as="geometry">
            <mxPoint x="100" y="41" as="targetPoint" />
            <Array as="points">
              <mxPoint x="210" y="-205" />
              <mxPoint x="210" y="145" />
            </Array>
          </mxGeometry>
        </mxCell>
        <mxCell id="ng85jkkkvSCnqqJY3Lj3-17" value="&lt;div style=&quot;background-color:#1e1f22;color:#bcbec4&quot;&gt;&lt;pre style=&quot;font-family:&#39;JetBrains Mono&#39;,monospace;font-size:10,5pt;&quot;&gt;os.environ.setdefault(&lt;span style=&quot;color:#558f5b;&quot;&gt;&quot;DJANGO_SETTINGS_MODULE&quot;&lt;/span&gt;, &lt;span style=&quot;color:#558f5b;&quot;&gt;&quot;project.settings&quot;&lt;/span&gt;)&lt;/pre&gt;&lt;/div&gt;" style="text;whiteSpace=wrap;html=1;" vertex="1" parent="1">
          <mxGeometry x="-10" y="-180" width="450" height="50" as="geometry" />
        </mxCell>
        <mxCell id="ng85jkkkvSCnqqJY3Lj3-24" style="edgeStyle=orthogonalEdgeStyle;rounded=0;orthogonalLoop=1;jettySize=auto;html=1;" edge="1" parent="1" source="ng85jkkkvSCnqqJY3Lj3-18" target="ng85jkkkvSCnqqJY3Lj3-23">
          <mxGeometry relative="1" as="geometry" />
        </mxCell>
        <mxCell id="ng85jkkkvSCnqqJY3Lj3-26" style="edgeStyle=orthogonalEdgeStyle;rounded=1;orthogonalLoop=1;jettySize=auto;html=1;exitX=0;exitY=1;exitDx=0;exitDy=0;exitPerimeter=0;curved=0;" edge="1" parent="1" source="ng85jkkkvSCnqqJY3Lj3-18" target="ng85jkkkvSCnqqJY3Lj3-25">
          <mxGeometry relative="1" as="geometry" />
        </mxCell>
        <mxCell id="ng85jkkkvSCnqqJY3Lj3-18" value="settings.py" style="shape=note;whiteSpace=wrap;html=1;backgroundOutline=1;darkOpacity=0.05;fillColor=#d5e8d4;strokeColor=#82b366;" vertex="1" parent="1">
          <mxGeometry x="30" y="80" width="80" height="100" as="geometry" />
        </mxCell>
        <mxCell id="ng85jkkkvSCnqqJY3Lj3-19" style="edgeStyle=orthogonalEdgeStyle;rounded=1;orthogonalLoop=1;jettySize=auto;html=1;entryX=0;entryY=0.5;entryDx=0;entryDy=0;entryPerimeter=0;curved=0;" edge="1" parent="1" source="ng85jkkkvSCnqqJY3Lj3-1" target="ng85jkkkvSCnqqJY3Lj3-18">
          <mxGeometry relative="1" as="geometry">
            <Array as="points">
              <mxPoint x="-110" y="-60" />
              <mxPoint x="-110" y="130" />
            </Array>
          </mxGeometry>
        </mxCell>
        <mxCell id="ng85jkkkvSCnqqJY3Lj3-20" style="edgeStyle=orthogonalEdgeStyle;rounded=1;orthogonalLoop=1;jettySize=auto;html=1;exitX=1;exitY=0.5;exitDx=0;exitDy=0;entryX=0;entryY=0.5;entryDx=0;entryDy=0;entryPerimeter=0;curved=0;" edge="1" parent="1" source="ng85jkkkvSCnqqJY3Lj3-7" target="ng85jkkkvSCnqqJY3Lj3-18">
          <mxGeometry relative="1" as="geometry">
            <Array as="points">
              <mxPoint x="-110" y="10" />
              <mxPoint x="-110" y="130" />
            </Array>
          </mxGeometry>
        </mxCell>
        <mxCell id="ng85jkkkvSCnqqJY3Lj3-21" style="edgeStyle=orthogonalEdgeStyle;rounded=1;orthogonalLoop=1;jettySize=auto;html=1;exitX=1;exitY=0.5;exitDx=0;exitDy=0;entryX=0;entryY=0.5;entryDx=0;entryDy=0;entryPerimeter=0;curved=0;" edge="1" parent="1" source="ng85jkkkvSCnqqJY3Lj3-3" target="ng85jkkkvSCnqqJY3Lj3-18">
          <mxGeometry relative="1" as="geometry">
            <Array as="points">
              <mxPoint x="-110" y="80" />
              <mxPoint x="-110" y="130" />
            </Array>
          </mxGeometry>
        </mxCell>
        <mxCell id="ng85jkkkvSCnqqJY3Lj3-22" style="edgeStyle=orthogonalEdgeStyle;rounded=1;orthogonalLoop=1;jettySize=auto;html=1;exitX=1;exitY=0.5;exitDx=0;exitDy=0;entryX=0;entryY=0.5;entryDx=0;entryDy=0;entryPerimeter=0;curved=0;" edge="1" parent="1" source="ng85jkkkvSCnqqJY3Lj3-4" target="ng85jkkkvSCnqqJY3Lj3-18">
          <mxGeometry relative="1" as="geometry">
            <Array as="points">
              <mxPoint x="-110" y="150" />
              <mxPoint x="-110" y="130" />
            </Array>
          </mxGeometry>
        </mxCell>
        <mxCell id="ng85jkkkvSCnqqJY3Lj3-23" value="DB" style="shape=cylinder3;whiteSpace=wrap;html=1;boundedLbl=1;backgroundOutline=1;size=15;fillColor=#dae8fc;strokeColor=#6c8ebf;" vertex="1" parent="1">
          <mxGeometry x="40" y="290" width="60" height="80" as="geometry" />
        </mxCell>
        <mxCell id="ng85jkkkvSCnqqJY3Lj3-25" value="" style="outlineConnect=0;dashed=0;verticalLabelPosition=bottom;verticalAlign=top;align=center;html=1;shape=mxgraph.aws3.cache_node;fillColor=#2E73B8;gradientColor=none;" vertex="1" parent="1">
          <mxGeometry x="-47.31" y="298.5" width="60" height="63" as="geometry" />
        </mxCell>
        <mxCell id="ng85jkkkvSCnqqJY3Lj3-27" value="Приложения&lt;div&gt;(написанные)&lt;/div&gt;" style="text;html=1;align=center;verticalAlign=middle;resizable=0;points=[];autosize=1;strokeColor=none;fillColor=none;" vertex="1" parent="1">
          <mxGeometry x="-280" y="-130" width="100" height="40" as="geometry" />
        </mxCell>
        <mxCell id="ng85jkkkvSCnqqJY3Lj3-28" value="Сторонние приложения&lt;div&gt;(нужно устанавливать)&lt;/div&gt;&lt;div&gt;pip install ...&lt;/div&gt;" style="text;html=1;align=center;verticalAlign=middle;resizable=0;points=[];autosize=1;strokeColor=none;fillColor=none;" vertex="1" parent="1">
          <mxGeometry x="-620" y="-10" width="160" height="60" as="geometry" />
        </mxCell>
        <mxCell id="ng85jkkkvSCnqqJY3Lj3-29" value="1. Запуск сервера разработки&lt;div&gt;2. Создание миграций&lt;/div&gt;&lt;div&gt;3. Применение миграций&lt;/div&gt;&lt;div&gt;4. Создание суперпользователя&lt;/div&gt;" style="text;html=1;align=left;verticalAlign=middle;resizable=0;points=[];autosize=1;strokeColor=none;fillColor=none;" vertex="1" parent="1">
          <mxGeometry x="110" y="-300" width="200" height="70" as="geometry" />
        </mxCell>
        <mxCell id="ng85jkkkvSCnqqJY3Lj3-36" value="admin" style="rounded=1;whiteSpace=wrap;html=1;fillColor=#ffe6cc;strokeColor=#d79b00;" vertex="1" parent="1">
          <mxGeometry x="-750" y="221.5" width="120" height="60" as="geometry" />
        </mxCell>
        <mxCell id="ng85jkkkvSCnqqJY3Lj3-37" value="auth" style="rounded=1;whiteSpace=wrap;html=1;fillColor=#ffe6cc;strokeColor=#d79b00;" vertex="1" parent="1">
          <mxGeometry x="-750" y="290" width="120" height="60" as="geometry" />
        </mxCell>
        <mxCell id="ng85jkkkvSCnqqJY3Lj3-38" value="Встроенные в Django&lt;div&gt;приложения&lt;/div&gt;" style="text;html=1;align=center;verticalAlign=middle;resizable=0;points=[];autosize=1;strokeColor=none;fillColor=none;" vertex="1" parent="1">
          <mxGeometry x="-760" y="180" width="140" height="40" as="geometry" />
        </mxCell>
        <mxCell id="ng85jkkkvSCnqqJY3Lj3-39" value="contenttypes" style="rounded=1;whiteSpace=wrap;html=1;fillColor=#ffe6cc;strokeColor=#d79b00;" vertex="1" parent="1">
          <mxGeometry x="-750" y="361.5" width="120" height="60" as="geometry" />
        </mxCell>
        <mxCell id="ng85jkkkvSCnqqJY3Lj3-47" style="edgeStyle=orthogonalEdgeStyle;rounded=0;orthogonalLoop=1;jettySize=auto;html=1;entryX=0;entryY=0.5;entryDx=0;entryDy=0;entryPerimeter=0;" edge="1" parent="1" source="ng85jkkkvSCnqqJY3Lj3-40" target="ng85jkkkvSCnqqJY3Lj3-18">
          <mxGeometry relative="1" as="geometry">
            <mxPoint x="-90" y="210" as="targetPoint" />
          </mxGeometry>
        </mxCell>
        <mxCell id="ng85jkkkvSCnqqJY3Lj3-40" value="sessions" style="rounded=1;whiteSpace=wrap;html=1;fillColor=#ffe6cc;strokeColor=#d79b00;" vertex="1" parent="1">
          <mxGeometry x="-750" y="430" width="120" height="60" as="geometry" />
        </mxCell>
        <mxCell id="ng85jkkkvSCnqqJY3Lj3-48" style="edgeStyle=orthogonalEdgeStyle;rounded=0;orthogonalLoop=1;jettySize=auto;html=1;entryX=0;entryY=0.5;entryDx=0;entryDy=0;entryPerimeter=0;" edge="1" parent="1" source="ng85jkkkvSCnqqJY3Lj3-41" target="ng85jkkkvSCnqqJY3Lj3-18">
          <mxGeometry relative="1" as="geometry">
            <mxPoint x="-130" y="190" as="targetPoint" />
          </mxGeometry>
        </mxCell>
        <mxCell id="ng85jkkkvSCnqqJY3Lj3-41" value="messages" style="rounded=1;whiteSpace=wrap;html=1;fillColor=#ffe6cc;strokeColor=#d79b00;" vertex="1" parent="1">
          <mxGeometry x="-750" y="500" width="120" height="60" as="geometry" />
        </mxCell>
        <mxCell id="ng85jkkkvSCnqqJY3Lj3-49" style="edgeStyle=orthogonalEdgeStyle;rounded=0;orthogonalLoop=1;jettySize=auto;html=1;entryX=0;entryY=0.5;entryDx=0;entryDy=0;entryPerimeter=0;" edge="1" parent="1" source="ng85jkkkvSCnqqJY3Lj3-42" target="ng85jkkkvSCnqqJY3Lj3-18">
          <mxGeometry relative="1" as="geometry">
            <mxPoint x="-130" y="200" as="targetPoint" />
          </mxGeometry>
        </mxCell>
        <mxCell id="ng85jkkkvSCnqqJY3Lj3-42" value="staticfiles" style="rounded=1;whiteSpace=wrap;html=1;fillColor=#ffe6cc;strokeColor=#d79b00;" vertex="1" parent="1">
          <mxGeometry x="-750" y="570" width="120" height="60" as="geometry" />
        </mxCell>
        <mxCell id="ng85jkkkvSCnqqJY3Lj3-43" style="edgeStyle=orthogonalEdgeStyle;rounded=0;orthogonalLoop=1;jettySize=auto;html=1;exitX=1;exitY=0.5;exitDx=0;exitDy=0;entryX=0;entryY=0.5;entryDx=0;entryDy=0;entryPerimeter=0;" edge="1" parent="1" source="ng85jkkkvSCnqqJY3Lj3-36" target="ng85jkkkvSCnqqJY3Lj3-18">
          <mxGeometry relative="1" as="geometry" />
        </mxCell>
        <mxCell id="ng85jkkkvSCnqqJY3Lj3-45" style="edgeStyle=orthogonalEdgeStyle;rounded=0;orthogonalLoop=1;jettySize=auto;html=1;entryX=0;entryY=0.5;entryDx=0;entryDy=0;entryPerimeter=0;" edge="1" parent="1" source="ng85jkkkvSCnqqJY3Lj3-37" target="ng85jkkkvSCnqqJY3Lj3-18">
          <mxGeometry relative="1" as="geometry" />
        </mxCell>
        <mxCell id="ng85jkkkvSCnqqJY3Lj3-46" style="edgeStyle=orthogonalEdgeStyle;rounded=0;orthogonalLoop=1;jettySize=auto;html=1;entryX=0;entryY=0.5;entryDx=0;entryDy=0;entryPerimeter=0;" edge="1" parent="1" source="ng85jkkkvSCnqqJY3Lj3-39" target="ng85jkkkvSCnqqJY3Lj3-18">
          <mxGeometry relative="1" as="geometry" />
        </mxCell>
      </root>
    </mxGraphModel>
  </diagram>
</mxfile>
